<svg width="144" height="32" viewBox="0 0 144 32" fill="none" xmlns="http://www.w3.org/2000/svg">
<path fill-rule="evenodd" clip-rule="evenodd" d="M11.6734 3.5C10.7262 3.5 9.81782 3.87626 9.14807 4.54602C8.47831 5.21577 8.10205 6.12416 8.10205 7.07133C8.10205 8.21342 8.55365 9.38952 9.34091 10.5628C10.1262 11.7333 11.1969 12.8272 12.3076 13.7777C13.4133 14.724 14.5252 15.4997 15.3637 16.0398C15.6622 16.2322 15.9245 16.3936 16.1376 16.5213C16.3506 16.3936 16.6129 16.2322 16.9115 16.0398C17.75 15.4997 18.8619 14.724 19.9676 13.7777C21.0783 12.8272 22.1489 11.7333 22.9342 10.5628C23.7215 9.38952 24.1731 8.21342 24.1731 7.07133C24.1731 6.12416 23.7968 5.21577 23.1271 4.54602C22.4573 3.87626 21.5489 3.5 20.6018 3.5C19.0463 3.5 17.8049 4.3335 17.2944 5.58063C17.1022 6.05028 16.6451 6.35709 16.1376 6.35709C15.6301 6.35709 15.173 6.05028 14.9807 5.58063C14.4702 4.3335 13.2289 3.5 11.6734 3.5ZM16.1376 17.964C15.545 19.0646 15.5447 19.0644 15.5443 19.0642L15.5411 19.0625L15.5339 19.0586L15.5096 19.0453C15.4891 19.0341 15.46 19.018 15.4229 18.9972C15.3486 18.9556 15.2423 18.8953 15.1084 18.8171C14.8408 18.6609 14.4623 18.433 14.0097 18.1415C13.1072 17.56 11.8977 16.7174 10.6821 15.6771C9.47136 14.641 8.22064 13.3802 7.26492 11.9558C6.31114 10.5343 5.60205 8.87562 5.60205 7.07133C5.60205 5.46111 6.24171 3.91685 7.3803 2.77825C8.5189 1.63966 10.0632 1 11.6734 1C13.4074 1 15.0121 1.66809 16.1376 2.84654C17.2631 1.66809 18.8677 1 20.6018 1C22.212 1 23.7563 1.63966 24.8949 2.77825C26.0334 3.91685 26.6731 5.46111 26.6731 7.07133C26.6731 8.87562 25.964 10.5343 25.0102 11.9558C24.0545 13.3802 22.8038 14.641 21.5931 15.6771C20.3774 16.7174 19.1679 17.56 18.2654 18.1415C17.8129 18.433 17.4344 18.6609 17.1668 18.8171C17.0329 18.8953 16.9265 18.9556 16.8523 18.9972C16.8152 19.018 16.7861 19.0341 16.7655 19.0453L16.7412 19.0586L16.734 19.0625L16.7317 19.0638C16.7314 19.0639 16.7302 19.0646 16.1376 17.964ZM16.1376 17.964L16.7302 19.0646C16.3602 19.2638 15.9143 19.2634 15.5443 19.0642L16.1376 17.964Z" fill="#AD7955"/>
<path d="M41.45 24.352C40.8927 24.352 40.3647 24.2713 39.866 24.11C39.3673 23.9633 38.9127 23.736 38.502 23.428C38.106 23.1053 37.7687 22.702 37.49 22.218C37.2113 21.734 37.006 21.1547 36.874 20.48H39.932C40.0053 20.92 40.1813 21.2427 40.46 21.448C40.7387 21.6533 41.0687 21.756 41.45 21.756C41.802 21.756 42.1027 21.668 42.352 21.492C42.6013 21.316 42.726 21.074 42.726 20.766C42.726 20.3847 42.5793 20.1133 42.286 19.952C42.0073 19.776 41.56 19.622 40.944 19.49C40.4307 19.3727 39.9393 19.2187 39.47 19.028C39.0153 18.8373 38.612 18.5953 38.26 18.302C37.908 18.0087 37.622 17.6567 37.402 17.246C37.1967 16.8207 37.094 16.322 37.094 15.75C37.094 15.2367 37.1893 14.7747 37.38 14.364C37.5853 13.9387 37.864 13.572 38.216 13.264C38.568 12.956 38.986 12.7213 39.47 12.56C39.954 12.384 40.4893 12.296 41.076 12.296C41.5893 12.296 42.0807 12.3693 42.55 12.516C43.034 12.648 43.4667 12.868 43.848 13.176C44.2293 13.4693 44.5593 13.8507 44.838 14.32C45.1167 14.7747 45.322 15.3247 45.454 15.97H42.44C42.352 15.5887 42.1907 15.31 41.956 15.134C41.736 14.9433 41.4647 14.848 41.142 14.848C40.8487 14.848 40.592 14.9287 40.372 15.09C40.152 15.2367 40.042 15.4567 40.042 15.75C40.042 16.0873 40.1887 16.344 40.482 16.52C40.79 16.6813 41.2887 16.8427 41.978 17.004C42.4767 17.1213 42.946 17.2753 43.386 17.466C43.8407 17.642 44.2367 17.8767 44.574 18.17C44.9113 18.4633 45.1753 18.8153 45.366 19.226C45.5713 19.6367 45.674 20.128 45.674 20.7C45.674 21.2867 45.5567 21.8073 45.322 22.262C45.102 22.7167 44.8013 23.098 44.42 23.406C44.0387 23.714 43.5913 23.9487 43.078 24.11C42.5647 24.2713 42.022 24.352 41.45 24.352ZM47.5498 12.648H50.9598V14.188C51.3852 13.6013 51.8985 13.1393 52.4998 12.802C53.1158 12.4647 53.7832 12.296 54.5018 12.296C55.2352 12.296 55.9245 12.45 56.5698 12.758C57.2152 13.0513 57.7798 13.4693 58.2638 14.012C58.7625 14.5547 59.1512 15.1927 59.4298 15.926C59.7232 16.6447 59.8698 17.4367 59.8698 18.302C59.8698 19.1673 59.7232 19.974 59.4298 20.722C59.1512 21.4553 58.7625 22.0933 58.2638 22.636C57.7798 23.164 57.2152 23.582 56.5698 23.89C55.9245 24.198 55.2352 24.352 54.5018 24.352C53.7832 24.352 53.1158 24.1833 52.4998 23.846C51.8985 23.494 51.3852 23.0247 50.9598 22.438V27.74H47.5498V12.648ZM50.9818 18.302C50.9818 18.698 51.0552 19.0647 51.2018 19.402C51.3485 19.7393 51.5465 20.04 51.7958 20.304C52.0452 20.5533 52.3312 20.7513 52.6538 20.898C52.9912 21.0447 53.3505 21.118 53.7318 21.118C54.1132 21.118 54.4725 21.052 54.8098 20.92C55.1472 20.7733 55.4405 20.5753 55.6898 20.326C55.9392 20.062 56.1372 19.7613 56.2838 19.424C56.4305 19.0867 56.5038 18.72 56.5038 18.324C56.5038 17.9427 56.4305 17.5833 56.2838 17.246C56.1372 16.9087 55.9392 16.6153 55.6898 16.366C55.4405 16.1167 55.1472 15.9187 54.8098 15.772C54.4725 15.6253 54.1132 15.552 53.7318 15.552C53.3505 15.552 52.9912 15.6253 52.6538 15.772C52.3312 15.9187 52.0452 16.1167 51.7958 16.366C51.5465 16.6153 51.3485 16.9087 51.2018 17.246C51.0552 17.5687 50.9818 17.9207 50.9818 18.302ZM66.9697 24.352C66.119 24.352 65.3197 24.1907 64.5717 23.868C63.8237 23.5453 63.1637 23.1127 62.5917 22.57C62.0343 22.0127 61.5943 21.3673 61.2717 20.634C60.949 19.9007 60.7877 19.116 60.7877 18.28C60.7877 17.4587 60.949 16.6887 61.2717 15.97C61.5943 15.2367 62.0343 14.5987 62.5917 14.056C63.1637 13.5133 63.8237 13.088 64.5717 12.78C65.3197 12.4573 66.119 12.296 66.9697 12.296C67.8203 12.296 68.6123 12.4573 69.3457 12.78C70.0937 13.088 70.7463 13.5133 71.3037 14.056C71.861 14.5987 72.301 15.2367 72.6237 15.97C72.9463 16.6887 73.1077 17.4587 73.1077 18.28C73.1077 19.116 72.9463 19.908 72.6237 20.656C72.301 21.3893 71.861 22.0347 71.3037 22.592C70.7463 23.1347 70.0937 23.5673 69.3457 23.89C68.6123 24.198 67.8203 24.352 66.9697 24.352ZM64.2417 18.302C64.2417 18.6833 64.3077 19.0427 64.4397 19.38C64.5863 19.7173 64.7843 20.0107 65.0337 20.26C65.283 20.5093 65.569 20.7073 65.8917 20.854C66.229 21.0007 66.581 21.074 66.9477 21.074C67.329 21.074 67.681 21.008 68.0037 20.876C68.341 20.7293 68.6343 20.5313 68.8837 20.282C69.133 20.0327 69.3237 19.7393 69.4557 19.402C69.6023 19.0647 69.6757 18.698 69.6757 18.302C69.6757 17.9207 69.6023 17.5687 69.4557 17.246C69.309 16.9233 69.111 16.6373 68.8617 16.388C68.627 16.1387 68.341 15.948 68.0037 15.816C67.681 15.6693 67.329 15.596 66.9477 15.596C66.581 15.596 66.229 15.6693 65.8917 15.816C65.569 15.948 65.283 16.1387 65.0337 16.388C64.7843 16.6373 64.5863 16.9233 64.4397 17.246C64.3077 17.5687 64.2417 17.9207 64.2417 18.302ZM78.2465 12.648V14.694C78.5252 13.99 78.9579 13.4327 79.5445 13.022C80.1459 12.6113 80.9159 12.4207 81.8545 12.45V15.97C80.6079 15.8527 79.7205 16.058 79.1925 16.586C78.6645 17.114 78.4005 17.95 78.4005 19.094V24H74.9685V12.648H78.2465ZM91.4787 24.044C90.0707 24.264 88.9047 24.3007 87.9807 24.154C87.0714 24.0073 86.3454 23.6993 85.8027 23.23C85.2747 22.7607 84.9007 22.152 84.6807 21.404C84.4754 20.6413 84.3727 19.7687 84.3727 18.786V15.574H82.6347V12.648H84.3727V9.172H87.7167V12.648H91.2807V15.574H87.7167V18.368C87.7167 18.852 87.746 19.292 87.8047 19.688C87.8634 20.084 88.0174 20.4067 88.2667 20.656C88.5307 20.9053 88.912 21.0667 89.4107 21.14C89.9094 21.1987 90.5987 21.1547 91.4787 21.008V24.044ZM96.7451 7.94V14.232C97.1264 13.616 97.6104 13.1467 98.1971 12.824C98.7984 12.4867 99.4658 12.318 100.199 12.318C100.727 12.318 101.233 12.406 101.717 12.582C102.201 12.758 102.626 13.0513 102.993 13.462C103.36 13.8727 103.653 14.4007 103.873 15.046C104.093 15.6913 104.203 16.4907 104.203 17.444V24H100.771V17.752C100.771 16.872 100.61 16.2487 100.287 15.882C99.9644 15.5007 99.5171 15.31 98.9451 15.31C98.4024 15.31 97.9184 15.4933 97.4931 15.86C97.0678 16.212 96.8184 16.784 96.7451 17.576V24H93.3131V7.94H96.7451ZM113.892 24V22.658C113.526 23.2153 113.056 23.6407 112.484 23.934C111.927 24.2127 111.296 24.352 110.592 24.352C110.035 24.352 109.514 24.2567 109.03 24.066C108.546 23.89 108.121 23.604 107.754 23.208C107.388 22.7973 107.102 22.2767 106.896 21.646C106.691 21.0153 106.588 20.2527 106.588 19.358V12.648H109.998V18.852C109.998 20.4947 110.592 21.316 111.78 21.316C112.352 21.316 112.844 21.118 113.254 20.722C113.665 20.3113 113.878 19.688 113.892 18.852V12.648H117.346V24H113.892ZM120.04 7.94H123.406V14.166C123.831 13.594 124.344 13.1393 124.946 12.802C125.547 12.4647 126.207 12.296 126.926 12.296C127.644 12.296 128.326 12.45 128.972 12.758C129.632 13.0513 130.204 13.4693 130.688 14.012C131.186 14.5547 131.575 15.1927 131.854 15.926C132.147 16.6447 132.294 17.4367 132.294 18.302C132.294 19.1673 132.147 19.974 131.854 20.722C131.575 21.4553 131.186 22.0933 130.688 22.636C130.204 23.164 129.632 23.582 128.972 23.89C128.326 24.198 127.644 24.352 126.926 24.352C126.207 24.352 125.547 24.1833 124.946 23.846C124.344 23.5087 123.831 23.0467 123.406 22.46V24H120.04V7.94ZM123.406 18.302C123.406 18.698 123.479 19.0647 123.626 19.402C123.772 19.7393 123.97 20.04 124.22 20.304C124.469 20.5533 124.755 20.7513 125.078 20.898C125.415 21.0447 125.774 21.118 126.156 21.118C126.537 21.118 126.896 21.052 127.234 20.92C127.571 20.7733 127.864 20.5753 128.114 20.326C128.363 20.062 128.561 19.7613 128.708 19.424C128.854 19.072 128.928 18.698 128.928 18.302C128.928 17.9207 128.854 17.5613 128.708 17.224C128.561 16.8867 128.363 16.5933 128.114 16.344C127.864 16.0947 127.571 15.8967 127.234 15.75C126.896 15.6033 126.537 15.53 126.156 15.53C125.774 15.53 125.415 15.6033 125.078 15.75C124.755 15.8967 124.469 16.0947 124.22 16.344C123.97 16.5933 123.772 16.8867 123.626 17.224C123.479 17.5613 123.406 17.9207 123.406 18.302Z" fill="white"/>
</svg>
