<svg width="20" height="21" viewBox="0 0 20 21" fill="none" xmlns="http://www.w3.org/2000/svg">
<g id="Group">
<path id="Vector" d="M18.8008 9.30058L11.0229 9.3241V1.69921C11.0232 1.54163 10.9924 1.38554 10.9323 1.23989C10.8721 1.09425 10.7838 0.961911 10.6724 0.850488C10.5609 0.739064 10.4286 0.650744 10.283 0.590598C10.1373 0.530452 9.98122 0.499665 9.82365 0.500003C9.66607 0.499665 9.50998 0.530452 9.36433 0.590598C9.21868 0.650744 9.08635 0.739064 8.97493 0.850488C8.8635 0.961911 8.77518 1.09425 8.71504 1.23989C8.65489 1.38554 8.6241 1.54163 8.62444 1.69921L8.64796 9.3008H1.19921C1.04163 9.30046 0.885539 9.33125 0.739892 9.39139C0.594245 9.45154 0.461911 9.53986 0.350488 9.65128C0.239064 9.7627 0.150744 9.89504 0.090598 10.0407C0.0304521 10.1863 -0.000335392 10.3424 2.75703e-06 10.5C-0.000335493 10.6576 0.0304535 10.8136 0.090602 10.9593C0.150751 11.1049 0.239074 11.2372 0.3505 11.3486C0.461927 11.4601 0.594262 11.5484 0.739908 11.6085C0.885554 11.6686 1.04164 11.6994 1.19921 11.699H8.6362V19.3008C8.63589 19.4584 8.6667 19.6144 8.72685 19.7601C8.78701 19.9057 8.87533 20.038 8.98675 20.1495C9.09817 20.2609 9.23049 20.3492 9.37612 20.4093C9.52176 20.4695 9.67784 20.5003 9.8354 20.5C9.99297 20.5003 10.1491 20.4695 10.2947 20.4093C10.4403 20.3492 10.5726 20.2609 10.6841 20.1495C10.7955 20.038 10.8838 19.9057 10.944 19.7601C11.0041 19.6144 11.0349 19.4584 11.0346 19.3008V11.6992H18.8008C18.9584 11.6995 19.1144 11.6687 19.2601 11.6086C19.4057 11.5484 19.538 11.4601 19.6495 11.3487C19.7609 11.2372 19.8492 11.1049 19.9093 10.9593C19.9695 10.8136 20.0003 10.6576 20 10.5C19.9997 10.182 19.8733 9.87714 19.6485 9.65227C19.4236 9.4274 19.1188 9.30092 18.8008 9.30058Z" fill="white"/>
</g>
</svg>
