<svg width="20" height="20" viewBox="0 0 20 20" fill="none" xmlns="http://www.w3.org/2000/svg">
<circle cx="10" cy="10" r="10" fill="#F1C40F"/>
<mask id="path-2-inside-1_196_50190" fill="white">
<rect x="3" y="4.75" width="9.625" height="8.75" rx="0.75"/>
</mask>
<rect x="3" y="4.75" width="9.625" height="8.75" rx="0.75" stroke="white" stroke-width="2" mask="url(#path-2-inside-1_196_50190)"/>
<line x1="11.75" y1="9.5" x2="16.125" y2="9.5" stroke="white"/>
<circle cx="6.5" cy="13.5" r="1.25" fill="#F1C40F" stroke="white"/>
<path d="M16.5 9.43566V12.75C16.5 12.8881 16.3881 13 16.25 13H12.5C12.3619 13 12.25 12.8881 12.25 12.75V9.125V7.25C12.25 7.11193 12.3619 7 12.5 7H14.0643C14.1306 7 14.1942 7.02634 14.2411 7.07322L16.4268 9.25888C16.4737 9.30577 16.5 9.36936 16.5 9.43566Z" stroke="white" stroke-linejoin="round"/>
<circle cx="14.375" cy="13.5" r="1.25" fill="#F1C40F" stroke="white"/>
</svg>
