<svg width="39" height="39" viewBox="0 0 39 39" fill="none" xmlns="http://www.w3.org/2000/svg">
<path d="M37.1991 14.9539C36.8536 14.9584 36.5235 15.0977 36.2791 15.3421C36.0348 15.5864 35.8955 15.9165 35.891 16.2621V26.7275L28.6 18.3901C28.1368 17.8969 27.5775 17.5039 26.9565 17.2352C26.3355 16.9665 25.6661 16.8279 24.9895 16.8279C24.3129 16.8279 23.6434 16.9665 23.0225 17.2352C22.4015 17.5039 21.8421 17.8969 21.3789 18.3901L16.3729 24.1112L14.7333 22.1227C14.2815 21.5808 13.7161 21.1447 13.0771 20.8455C12.4381 20.5463 11.7411 20.3912 11.0356 20.3912C10.33 20.3912 9.63299 20.5463 8.99399 20.8455C8.35498 21.1447 7.78957 21.5808 7.33777 22.1227L3.62254 26.6054V9.28514C3.62714 7.7831 4.22586 6.34389 5.28797 5.28179C6.35007 4.21968 7.78928 3.62096 9.29132 3.61636H23.2452C23.5922 3.61636 23.9249 3.47853 24.1703 3.2332C24.4156 2.98787 24.5534 2.65513 24.5534 2.30818C24.5534 1.96123 24.4156 1.62849 24.1703 1.38316C23.9249 1.13783 23.5922 1 23.2452 1H9.29132C7.09396 1 4.9866 1.8729 3.43284 3.42666C1.87907 4.98042 1.00618 7.08778 1.00618 9.28514V30.216C0.997941 30.2445 0.997941 30.2747 1.00618 30.3032C1.02915 32.4854 1.91218 34.5704 3.46346 36.1054C5.01474 37.6404 7.10899 38.5013 9.29132 38.5011H30.2222C32.3955 38.4968 34.4801 37.6387 36.0267 36.1117C37.5732 34.5847 38.4579 32.5112 38.4899 30.3381V16.2621C38.4855 15.9195 38.3486 15.5919 38.108 15.348C37.8674 15.1041 37.5416 14.9629 37.1991 14.9539ZM30.2222 35.8848H9.29132C7.86647 35.8802 6.49559 35.3393 5.45159 34.3696C4.40758 33.4 3.76702 32.0727 3.65742 30.6521L9.29132 23.7972C9.50234 23.5621 9.7605 23.3741 10.049 23.2454C10.3375 23.1166 10.6499 23.0501 10.9658 23.0501C11.2817 23.0501 11.5941 23.1166 11.8826 23.2454C12.1711 23.3741 12.4292 23.5621 12.6403 23.7972L15.2741 26.9717C15.3948 27.1186 15.5466 27.237 15.7185 27.3184C15.8904 27.3998 16.0781 27.4423 16.2683 27.4427C16.6449 27.4219 16.9999 27.26 17.2625 26.9892L23.2627 20.1169C23.4761 19.892 23.7331 19.713 24.018 19.5906C24.3029 19.4683 24.6097 19.4052 24.9197 19.4052C25.2297 19.4052 25.5365 19.4683 25.8214 19.5906C26.1063 19.713 26.3633 19.892 26.5767 20.1169L35.7689 30.5823C35.6813 32.002 35.0616 33.3364 34.0334 34.3192C33.0053 35.3021 31.6443 35.8611 30.2222 35.8848Z" fill="#AD7955"/>
<path fill-rule="evenodd" clip-rule="evenodd" d="M37.2096 14.5541C37.6555 14.5658 38.0795 14.7497 38.3927 15.0672C38.706 15.3847 38.8841 15.8111 38.8898 16.2571L38.8899 16.2622L38.8899 30.3441C38.8563 32.6221 37.9289 34.7957 36.3077 36.3964C34.6865 37.9971 32.5012 38.8967 30.223 38.9012H9.29131C7.00362 38.9014 4.80827 37.9989 3.18209 36.3898C1.56498 34.7897 0.640595 32.6194 0.606662 30.3458C0.59792 30.2898 0.59775 30.2329 0.606154 30.177V9.28523C0.606154 6.98179 1.52119 4.77269 3.14997 3.14392C4.77875 1.51514 6.98785 0.600098 9.29129 0.600098H23.2452C23.6982 0.600098 24.1327 0.780066 24.4531 1.10041C24.7734 1.42076 24.9534 1.85524 24.9534 2.30828C24.9534 2.76131 24.7734 3.1958 24.4531 3.51614C24.1327 3.83649 23.6982 4.01646 23.2452 4.01646H9.2919C7.89575 4.02089 6.55803 4.57748 5.57078 5.56473C4.58354 6.55198 4.02695 7.88969 4.02251 9.28585V25.4961L7.02977 21.8676C7.51911 21.2806 8.13223 20.8074 8.82433 20.4833C9.51643 20.1592 10.2713 19.9913 11.0355 19.9913C11.7998 19.9913 12.5546 20.1592 13.2467 20.4833C13.9388 20.8074 14.5512 21.2797 15.0406 21.8667L15.0419 21.8684L16.382 23.4935L21.0871 18.1161C21.5878 17.5832 22.1925 17.1586 22.8636 16.8682C23.5347 16.5778 24.2582 16.428 24.9894 16.428C25.7207 16.428 26.4442 16.5778 27.1153 16.8682C27.7864 17.1586 28.3909 17.5833 28.8916 18.1163L28.9013 18.1267L35.4909 25.6626V16.257C35.4968 15.8071 35.6782 15.3774 35.9963 15.0593C36.3143 14.7412 36.7441 14.5599 37.1939 14.554L37.2096 14.5541ZM35.8909 26.7276L28.6 18.3902C28.1368 17.897 27.5774 17.504 26.9565 17.2353C26.3355 16.9666 25.666 16.828 24.9894 16.828C24.3128 16.828 23.6434 16.9666 23.0224 17.2353C22.4015 17.504 21.8421 17.897 21.3789 18.3902L16.3729 24.1113L14.7333 22.1228C14.2815 21.5809 13.7161 21.1448 13.0771 20.8456C12.4381 20.5464 11.7411 20.3913 11.0355 20.3913C10.3299 20.3913 9.63297 20.5464 8.99396 20.8456C8.35496 21.1448 7.78954 21.5809 7.33774 22.1228L3.62251 26.6055V9.28523C3.62711 7.7832 4.22583 6.34399 5.28794 5.28189C6.35005 4.21978 7.78925 3.62106 9.29129 3.61646H23.2452C23.5922 3.61646 23.9249 3.47863 24.1702 3.2333C24.4156 2.98797 24.5534 2.65523 24.5534 2.30828C24.5534 1.96133 24.4156 1.62859 24.1702 1.38325C23.9249 1.13792 23.5922 1.0001 23.2452 1.0001H9.29129C7.09394 1.0001 4.98658 1.87299 3.43281 3.42676C1.87905 4.98052 1.00615 7.08788 1.00615 9.28523V30.2161C0.997916 30.2446 0.997916 30.2748 1.00615 30.3033C1.02913 32.4855 1.91215 34.5705 3.46343 36.1055C5.01472 37.6405 7.10896 38.5014 9.29129 38.5012H30.2222C32.3955 38.4969 34.4801 37.6388 36.0267 36.1118C37.5732 34.5848 38.4578 32.5113 38.4899 30.3382V16.2622C38.4855 15.9196 38.3486 15.592 38.108 15.3481C37.8673 15.1042 37.5416 14.963 37.1991 14.954C36.8536 14.9585 36.5235 15.0978 36.2791 15.3422C36.0347 15.5865 35.8955 15.9166 35.8909 16.2622V26.7276ZM16.2682 27.4428C16.0781 27.4424 15.8903 27.3999 15.7185 27.3185C15.5466 27.2371 15.3948 27.1187 15.274 26.9718L12.6402 23.7973C12.4292 23.5622 12.171 23.3742 11.8825 23.2455C11.594 23.1167 11.2817 23.0502 10.9658 23.0502C10.6498 23.0502 10.3375 23.1167 10.049 23.2455C9.76047 23.3742 9.50231 23.5622 9.29129 23.7973L3.6574 30.6522C3.76699 32.0728 4.40756 33.4001 5.45156 34.3697C6.49557 35.3394 7.86645 35.8803 9.29129 35.8849H30.2222C31.6443 35.8612 33.0053 35.3022 34.0334 34.3193C35.0615 33.3365 35.6812 32.002 35.7688 30.5824L26.5767 20.117C26.3632 19.8921 26.1062 19.7131 25.8214 19.5907C25.5365 19.4684 25.2297 19.4053 24.9197 19.4053C24.6096 19.4053 24.3029 19.4684 24.018 19.5907C23.7331 19.7131 23.4761 19.8921 23.2626 20.117L17.2625 26.9893C16.9999 27.2601 16.6449 27.422 16.2682 27.4428ZM23.5582 20.3866L17.55 27.2681C17.2174 27.6111 16.7674 27.8158 16.2903 27.8422L16.2674 27.8434C16.0183 27.8429 15.7724 27.7867 15.5472 27.68C15.3225 27.5735 15.124 27.4188 14.9659 27.2268C14.9656 27.2265 14.9661 27.2271 14.9659 27.2268L12.3376 24.059C12.165 23.8682 11.9545 23.7156 11.7196 23.6108C11.4824 23.5049 11.2255 23.4502 10.9658 23.4502C10.706 23.4502 10.4492 23.5049 10.212 23.6108C9.97726 23.7155 9.76699 23.8679 9.59452 24.0583L4.07077 30.7792C4.20623 32.0398 4.79219 33.2114 5.72378 34.0766C6.69412 34.9779 7.96826 35.4807 9.29257 35.4849H30.2187C31.539 35.4621 32.8024 34.9428 33.757 34.0302C34.6732 33.1544 35.2403 31.9781 35.3571 30.7197L26.2815 20.387C26.1064 20.2041 25.8963 20.0582 25.6635 19.9583C25.4285 19.8574 25.1754 19.8053 24.9197 19.8053C24.6639 19.8053 24.4108 19.8574 24.1758 19.9583C23.9433 20.0582 23.7332 20.2038 23.5582 20.3866Z" fill="#AD7955"/>
<path d="M6.23914 11.0294C6.23914 11.9781 6.52045 12.9054 7.04752 13.6943C7.57458 14.4831 8.32372 15.0979 9.20019 15.4609C10.0767 15.824 11.0411 15.9189 11.9716 15.7339C12.902 15.5488 13.7567 15.092 14.4275 14.4211C15.0984 13.7503 15.5552 12.8956 15.7403 11.9652C15.9254 11.0347 15.8304 10.0702 15.4673 9.19377C15.1043 8.3173 14.4895 7.56816 13.7007 7.0411C12.9119 6.51404 11.9845 6.23272 11.0358 6.23272C9.76364 6.23272 8.54359 6.73808 7.64404 7.63763C6.7445 8.53717 6.23914 9.75722 6.23914 11.0294ZM13.2161 11.0294C13.2161 11.4606 13.0882 11.8821 12.8486 12.2407C12.6091 12.5992 12.2686 12.8787 11.8702 13.0437C11.4718 13.2087 11.0334 13.2519 10.6104 13.1678C10.1875 13.0837 9.79901 12.876 9.49409 12.5711C9.18917 12.2662 8.98152 11.8777 8.89739 11.4547C8.81326 11.0318 8.85644 10.5934 9.02146 10.195C9.18648 9.79661 9.46594 9.4561 9.82448 9.21652C10.183 8.97695 10.6046 8.84908 11.0358 8.84908C11.614 8.84908 12.1686 9.07879 12.5775 9.48767C12.9864 9.89656 13.2161 10.4511 13.2161 11.0294ZM26.7339 8.84908H30.6585V12.7736C30.6585 13.1206 30.7963 13.4533 31.0416 13.6986C31.287 13.944 31.6197 14.0818 31.9667 14.0818C32.3136 14.0818 32.6464 13.944 32.8917 13.6986C33.137 13.4533 33.2748 13.1206 33.2748 12.7736V8.84908H37.1994C37.5463 8.84908 37.8791 8.71125 38.1244 8.46592C38.3697 8.22059 38.5076 7.88785 38.5076 7.5409C38.5076 7.19395 38.3697 6.86121 38.1244 6.61587C37.8791 6.37054 37.5463 6.23272 37.1994 6.23272H33.2748V2.30818C33.2748 1.96123 33.137 1.62849 32.8917 1.38316C32.6464 1.13783 32.3136 1 31.9667 1C31.6197 1 31.287 1.13783 31.0416 1.38316C30.7963 1.62849 30.6585 1.96123 30.6585 2.30818V6.23272H26.7339C26.387 6.23272 26.0543 6.37054 25.8089 6.61587C25.5636 6.86121 25.4258 7.19395 25.4258 7.5409C25.4258 7.88785 25.5636 8.22059 25.8089 8.46592C26.0543 8.71125 26.387 8.84908 26.7339 8.84908Z" fill="#AD7955"/>
<path fill-rule="evenodd" clip-rule="evenodd" d="M6.71491 13.9166C6.14389 13.062 5.83911 12.0573 5.83911 11.0295C5.83911 9.65123 6.38661 8.32944 7.36118 7.35488C8.33574 6.38032 9.65753 5.83282 11.0358 5.83282C12.0636 5.83282 13.0683 6.13759 13.9229 6.70861C14.7775 7.27963 15.4435 8.09123 15.8369 9.0408C16.2302 9.99036 16.3331 11.0352 16.1326 12.0433C15.9321 13.0513 15.4371 13.9773 14.7104 14.7041C13.9836 15.4308 13.0576 15.9258 12.0496 16.1263C11.0415 16.3268 9.99666 16.2239 9.04709 15.8306C8.09753 15.4372 7.28592 14.7712 6.71491 13.9166ZM12.516 12.0186C12.7117 11.7258 12.8161 11.3816 12.8161 11.0295C12.8161 10.5573 12.6285 10.1045 12.2946 9.77061C11.9608 9.43674 11.5079 9.24917 11.0358 9.24917C10.6837 9.24917 10.3395 9.35359 10.0467 9.54921C9.75392 9.74483 9.52573 10.0229 9.39099 10.3482C9.25624 10.6735 9.22099 11.0314 9.28968 11.3768C9.35837 11.7221 9.52793 12.0394 9.77691 12.2883C10.0259 12.5373 10.3431 12.7069 10.6885 12.7756C11.0338 12.8443 11.3918 12.809 11.7171 12.6743C12.0424 12.5395 12.3204 12.3113 12.516 12.0186ZM30.2585 9.24917H26.7339C26.2809 9.24917 25.8464 9.06921 25.5261 8.74886C25.2057 8.42851 25.0257 7.99403 25.0257 7.54099C25.0257 7.08796 25.2057 6.65347 25.5261 6.33313C25.8464 6.01278 26.2809 5.83282 26.7339 5.83282H30.2585V2.30828C30.2585 1.85524 30.4384 1.42076 30.7588 1.10041C31.0791 0.780066 31.5136 0.600098 31.9666 0.600098C32.4197 0.600098 32.8542 0.780066 33.1745 1.10041C33.4949 1.42076 33.6748 1.85524 33.6748 2.30828V5.83282H37.1994C37.6524 5.83282 38.0869 6.01278 38.4072 6.33313C38.7276 6.65348 38.9075 7.08796 38.9075 7.54099C38.9075 7.99403 38.7276 8.42851 38.4072 8.74886C38.0869 9.06921 37.6524 9.24917 37.1994 9.24917H33.6748V12.7737C33.6748 13.2267 33.4949 13.6612 33.1745 13.9816C32.8542 14.3019 32.4197 14.4819 31.9666 14.4819C31.5136 14.4819 31.0791 14.3019 30.7588 13.9816C30.4384 13.6612 30.2585 13.2267 30.2585 12.7737V9.24917ZM7.04749 13.6944C6.52043 12.9055 6.23911 11.9782 6.23911 11.0295C6.23911 9.75732 6.74447 8.53727 7.64402 7.63772C8.54357 6.73818 9.76362 6.23282 11.0358 6.23282C11.9845 6.23282 12.9118 6.51413 13.7007 7.0412C14.4895 7.56826 15.1043 8.3174 15.4673 9.19387C15.8304 10.0703 15.9253 11.0348 15.7403 11.9653C15.5552 12.8957 15.0983 13.7504 14.4275 14.4212C13.7567 15.092 12.902 15.5489 11.9716 15.734C11.0411 15.919 10.0766 15.8241 9.20017 15.461C8.32369 15.098 7.57456 14.4832 7.04749 13.6944ZM12.8486 12.2408C13.0882 11.8822 13.2161 11.4607 13.2161 11.0295C13.2161 10.4512 12.9864 9.89665 12.5775 9.48777C12.1686 9.07888 11.614 8.84917 11.0358 8.84917C10.6045 8.84917 10.183 8.97705 9.82446 9.21662C9.46591 9.45619 9.18646 9.79671 9.02144 10.1951C8.85641 10.5935 8.81324 11.0319 8.89736 11.4548C8.98149 11.8778 9.18915 12.2663 9.49407 12.5712C9.79899 12.8761 10.1875 13.0838 10.6104 13.1679C11.0334 13.252 11.4717 13.2088 11.8701 13.0438C12.2685 12.8788 12.609 12.5993 12.8486 12.2408ZM26.7339 8.84917C26.387 8.84917 26.0542 8.71135 25.8089 8.46602C25.5636 8.22069 25.4257 7.88795 25.4257 7.54099C25.4257 7.19404 25.5636 6.8613 25.8089 6.61597C26.0542 6.37064 26.387 6.23282 26.7339 6.23282H30.6585V2.30828C30.6585 1.96133 30.7963 1.62859 31.0416 1.38325C31.287 1.13792 31.6197 1.0001 31.9666 1.0001C32.3136 1.0001 32.6463 1.13792 32.8917 1.38325C33.137 1.62859 33.2748 1.96133 33.2748 2.30828V6.23282H37.1994C37.5463 6.23282 37.8791 6.37064 38.1244 6.61597C38.3697 6.8613 38.5075 7.19404 38.5075 7.54099C38.5075 7.88795 38.3697 8.22069 38.1244 8.46602C37.8791 8.71135 37.5463 8.84917 37.1994 8.84917H33.2748V12.7737C33.2748 13.1207 33.137 13.4534 32.8917 13.6987C32.6463 13.9441 32.3136 14.0819 31.9666 14.0819C31.6197 14.0819 31.287 13.9441 31.0416 13.6987C30.7963 13.4534 30.6585 13.1207 30.6585 12.7737V8.84917H26.7339Z" fill="#AD7955"/>
</svg>
