<svg width="64" height="64" viewBox="0 0 64 64" fill="none" xmlns="http://www.w3.org/2000/svg">
<path d="M56.2655 26.6052C55.8048 26.6112 55.3646 26.7969 55.0388 27.1228C54.713 27.4486 54.5273 27.8887 54.5213 28.3495V42.3034L44.8001 31.1868C44.1824 30.5292 43.4366 30.0052 42.6086 29.6469C41.7807 29.2887 40.8881 29.1039 39.986 29.1039C39.0838 29.1039 38.1912 29.2887 37.3633 29.6469C36.5353 30.0052 35.7895 30.5292 35.1719 31.1868L28.4972 38.8149L26.3111 36.1637C25.7087 35.441 24.9548 34.8596 24.1028 34.4607C23.2508 34.0617 22.3215 33.8549 21.3807 33.8549C20.4399 33.8549 19.5107 34.0617 18.6586 34.4607C17.8066 34.8596 17.0528 35.441 16.4504 36.1637L11.4967 42.1406V19.0469C11.5028 17.0441 12.3011 15.1252 13.7173 13.7091C15.1334 12.2929 17.0524 11.4946 19.0551 11.4885H37.6603C38.1229 11.4885 38.5666 11.3047 38.8937 10.9776C39.2208 10.6505 39.4045 10.2068 39.4045 9.74424C39.4045 9.28164 39.2208 8.83798 38.8937 8.51088C38.5666 8.18377 38.1229 8 37.6603 8H19.0551C16.1253 8 13.3155 9.16386 11.2438 11.2355C9.1721 13.3072 8.00824 16.117 8.00824 19.0469V46.9547C7.99725 46.9927 7.99725 47.033 8.00824 47.071C8.03887 49.9806 9.21624 52.7606 11.2846 54.8072C13.353 56.8538 16.1453 58.0017 19.0551 58.0015H46.9629C49.8607 57.9957 52.6402 56.8516 54.7023 54.8156C56.7643 52.7796 57.9438 50.015 57.9865 47.1175V28.3495C57.9807 27.8927 57.7982 27.4559 57.4773 27.1307C57.1565 26.8055 56.7222 26.6172 56.2655 26.6052ZM46.9629 54.5131H19.0551C17.1553 54.507 15.3275 53.7857 13.9354 52.4928C12.5434 51.1999 11.6894 49.4303 11.5432 47.5361L19.0551 38.3963C19.3364 38.0828 19.6807 37.8321 20.0653 37.6605C20.45 37.4889 20.8665 37.4002 21.2877 37.4002C21.7089 37.4002 22.1254 37.4889 22.5101 37.6605C22.8948 37.8321 23.239 38.0828 23.5203 38.3963L27.0321 42.629C27.1931 42.8248 27.3955 42.9827 27.6246 43.0912C27.8538 43.1998 28.1041 43.2564 28.3577 43.2569C28.8599 43.2292 29.3332 43.0133 29.6833 42.6522L37.6836 33.4892C37.9682 33.1894 38.3109 32.9507 38.6907 32.7875C39.0705 32.6244 39.4796 32.5403 39.8929 32.5403C40.3063 32.5403 40.7154 32.6244 41.0952 32.7875C41.475 32.9507 41.8177 33.1894 42.1023 33.4892L54.3585 47.4431C54.2417 49.3359 53.4154 51.1152 52.0446 52.4257C50.6737 53.7361 48.8591 54.4815 46.9629 54.5131Z" fill="#AD7955"/>
<path fill-rule="evenodd" clip-rule="evenodd" d="M56.2795 26.0721C56.874 26.0877 57.4393 26.3328 57.857 26.7561C58.2747 27.1794 58.5122 27.748 58.5198 28.3426L58.5199 28.3495L58.5199 47.1253C58.4751 50.1627 57.2386 53.0609 55.077 55.1951C52.9154 57.3294 50.0017 58.5288 46.964 58.5349H19.0551C16.0049 58.535 13.0777 57.3317 10.9095 55.1863C8.75334 53.0529 7.52083 50.1591 7.47559 47.1276C7.46393 47.053 7.46371 46.9771 7.47491 46.9025V19.0469C7.47491 15.9756 8.69496 13.0301 10.8667 10.8584C13.0384 8.68673 15.9838 7.46667 19.0551 7.46667H37.6603C38.2644 7.46667 38.8437 7.70663 39.2708 8.13376C39.6979 8.56089 39.9379 9.1402 39.9379 9.74425C39.9379 10.3483 39.6979 10.9276 39.2708 11.3547C38.8437 11.7819 38.2644 12.0218 37.6603 12.0218H19.0559C17.1944 12.0277 15.4108 12.7699 14.0944 14.0862C12.7781 15.4025 12.036 17.1861 12.0301 19.0477V40.6613L16.0397 35.8233C16.6922 35.0406 17.5097 34.4098 18.4325 33.9777C19.3553 33.5455 20.3618 33.3216 21.3807 33.3216C22.3997 33.3216 23.4062 33.5455 24.329 33.9777C25.2518 34.4098 26.0683 35.0395 26.7208 35.8222L26.7226 35.8244L28.5093 37.9912L34.7829 30.8214C35.4504 30.1108 36.2567 29.5446 37.1515 29.1575C38.0463 28.7703 39.011 28.5706 39.986 28.5706C40.961 28.5706 41.9256 28.7703 42.8204 29.1575C43.7152 29.5446 44.5213 30.111 45.1888 30.8216L45.2018 30.8355L53.988 40.8833V28.3425C53.9958 27.7427 54.2376 27.1698 54.6617 26.7456C55.0858 26.3215 55.6588 26.0798 56.2586 26.0719L56.2795 26.0721ZM54.5213 42.3034L44.8001 31.1868C44.1824 30.5292 43.4366 30.0052 42.6086 29.6469C41.7807 29.2887 40.8881 29.1039 39.986 29.1039C39.0838 29.1039 38.1913 29.2887 37.3633 29.6469C36.5353 30.0052 35.7895 30.5292 35.1719 31.1868L28.4972 38.8149L26.3111 36.1637C25.7087 35.441 24.9548 34.8596 24.1028 34.4607C23.2508 34.0617 22.3215 33.8549 21.3807 33.8549C20.44 33.8549 19.5107 34.0617 18.6587 34.4607C17.8067 34.8596 17.0528 35.441 16.4504 36.1637L11.4967 42.1406V19.0469C11.5029 17.0441 12.3012 15.1252 13.7173 13.7091C15.1334 12.2929 17.0524 11.4946 19.0551 11.4885H37.6603C38.1229 11.4885 38.5666 11.3047 38.8937 10.9776C39.2208 10.6505 39.4046 10.2068 39.4046 9.74425C39.4046 9.28165 39.2208 8.83799 38.8937 8.51088C38.5666 8.18378 38.1229 8.00001 37.6603 8.00001H19.0551C16.1253 8.00001 13.3155 9.16387 11.2438 11.2356C9.17211 13.3072 8.00825 16.117 8.00825 19.0469V46.9547C7.99726 46.9927 7.99726 47.033 8.00825 47.071C8.03887 49.9806 9.21624 52.7606 11.2846 54.8072C13.353 56.8538 16.1453 58.0017 19.0551 58.0015H46.9629C49.8607 57.9958 52.6402 56.8516 54.7023 54.8156C56.7643 52.7796 57.9438 50.015 57.9865 47.1175V28.3495C57.9807 27.8927 57.7982 27.4559 57.4773 27.1307C57.1565 26.8055 56.7222 26.6172 56.2655 26.6052C55.8048 26.6112 55.3646 26.797 55.0388 27.1228C54.713 27.4486 54.5273 27.8887 54.5213 28.3495V42.3034ZM28.3577 43.2569C28.1041 43.2564 27.8538 43.1998 27.6246 43.0912C27.3955 42.9827 27.1931 42.8248 27.0321 42.629L23.5203 38.3963C23.239 38.0828 22.8948 37.8321 22.5101 37.6605C22.1254 37.4889 21.7089 37.4002 21.2877 37.4002C20.8665 37.4002 20.45 37.4889 20.0653 37.6605C19.6807 37.8321 19.3365 38.0828 19.0551 38.3963L11.5432 47.5361C11.6894 49.4303 12.5434 51.1999 13.9355 52.4928C15.3275 53.7857 17.1553 54.507 19.0551 54.5131H46.9629C48.8591 54.4815 50.6737 53.7362 52.0446 52.4257C53.4154 51.1152 54.2417 49.3359 54.3585 47.4431L42.1023 33.4892C41.8177 33.1894 41.475 32.9507 41.0952 32.7875C40.7154 32.6244 40.3063 32.5403 39.8929 32.5403C39.4796 32.5403 39.0705 32.6244 38.6907 32.7875C38.3109 32.9507 37.9682 33.1894 37.6836 33.4892L29.6833 42.6522C29.3332 43.0133 28.8599 43.2292 28.3577 43.2569ZM38.0777 33.8487L30.0667 43.024C29.6232 43.4814 29.0232 43.7543 28.3871 43.7894L28.3566 43.7911C28.0244 43.7904 27.6965 43.7154 27.3963 43.5732C27.0966 43.4313 26.832 43.2249 26.6212 42.969C26.6208 42.9686 26.6215 42.9694 26.6212 42.969L23.1168 38.7452C22.8867 38.4909 22.6061 38.2873 22.2928 38.1475C21.9765 38.0064 21.6341 37.9335 21.2877 37.9335C20.9414 37.9335 20.5989 38.0064 20.2826 38.1475C19.9697 38.2872 19.6894 38.4904 19.4594 38.7443L12.0944 47.7054C12.275 49.3863 13.0563 50.9484 14.2984 52.1021C15.5922 53.3037 17.2911 53.9741 19.0568 53.9797H46.9583C48.7187 53.9494 50.4032 53.2569 51.676 52.0401C52.8976 50.8724 53.6538 49.3041 53.8095 47.6262L41.7087 33.8492C41.4753 33.6053 41.195 33.4109 40.8847 33.2776C40.5714 33.143 40.234 33.0736 39.8929 33.0736C39.5519 33.0736 39.2145 33.143 38.9011 33.2776C38.5911 33.4108 38.311 33.605 38.0777 33.8487Z" fill="#AD7955"/>
<path d="M14.9855 21.3726C14.9855 22.6375 15.3606 23.874 16.0633 24.9258C16.7661 25.9775 17.7649 26.7972 18.9335 27.2813C20.1022 27.7654 21.3881 27.892 22.6287 27.6453C23.8693 27.3985 25.0089 26.7894 25.9034 25.8949C26.7978 25.0005 27.4069 23.8609 27.6537 22.6203C27.9004 21.3797 27.7738 20.0938 27.2897 18.9251C26.8057 17.7565 25.9859 16.7576 24.9342 16.0549C23.8825 15.3521 22.6459 14.9771 21.381 14.9771C19.6848 14.9771 18.0581 15.6509 16.8587 16.8503C15.6593 18.0497 14.9855 19.6764 14.9855 21.3726ZM24.2881 21.3726C24.2881 21.9476 24.1176 22.5096 23.7982 22.9877C23.4787 23.4657 23.0247 23.8383 22.4935 24.0584C21.9623 24.2784 21.3778 24.336 20.8139 24.2238C20.25 24.1116 19.732 23.8348 19.3254 23.4282C18.9189 23.0216 18.642 22.5037 18.5298 21.9397C18.4176 21.3758 18.4752 20.7913 18.6952 20.2601C18.9153 19.7289 19.2879 19.2749 19.7659 18.9555C20.244 18.636 20.8061 18.4655 21.381 18.4655C22.152 18.4655 22.8914 18.7718 23.4366 19.317C23.9818 19.8622 24.2881 20.6016 24.2881 21.3726Z" fill="#AD7955"/>
<path fill-rule="evenodd" clip-rule="evenodd" d="M15.6199 25.2221C14.8585 24.0826 14.4521 22.743 14.4521 21.3726C14.4521 19.5349 15.1822 17.7726 16.4816 16.4731C17.781 15.1737 19.5434 14.4437 21.381 14.4437C22.7514 14.4437 24.0911 14.8501 25.2305 15.6115C26.37 16.3728 27.258 17.4549 27.7825 18.721C28.3069 19.9871 28.4441 21.3803 28.1768 22.7244C27.9094 24.0684 27.2495 25.303 26.2805 26.2721C25.3115 27.2411 24.0769 27.901 22.7328 28.1683C21.3887 28.4357 19.9955 28.2985 18.7295 27.774C17.4634 27.2496 16.3812 26.3615 15.6199 25.2221ZM23.3547 22.6914C23.6155 22.301 23.7548 21.8421 23.7548 21.3726C23.7548 20.743 23.5047 20.1393 23.0595 19.6941C22.6143 19.249 22.0106 18.9989 21.381 18.9989C20.9115 18.9989 20.4526 19.1381 20.0623 19.3989C19.6719 19.6597 19.3676 20.0305 19.188 20.4642C19.0083 20.898 18.9613 21.3752 19.0529 21.8357C19.1445 22.2962 19.3706 22.7191 19.7025 23.0511C20.0345 23.3831 20.4575 23.6091 20.9179 23.7007C21.3784 23.7923 21.8557 23.7453 22.2894 23.5656C22.7232 23.386 23.0939 23.0817 23.3547 22.6914ZM16.0633 24.9258C15.3606 23.874 14.9855 22.6375 14.9855 21.3726C14.9855 19.6764 15.6593 18.0497 16.8587 16.8503C18.0581 15.6509 19.6848 14.9771 21.381 14.9771C22.6459 14.9771 23.8825 15.3522 24.9342 16.0549C25.9859 16.7577 26.8057 17.7565 27.2897 18.9251C27.7738 20.0938 27.9005 21.3797 27.6537 22.6203C27.4069 23.8609 26.7978 25.0005 25.9034 25.8949C25.0089 26.7894 23.8694 27.3985 22.6287 27.6453C21.3881 27.892 20.1022 27.7654 18.9336 27.2813C17.7649 26.7972 16.7661 25.9775 16.0633 24.9258ZM23.7982 22.9877C24.1176 22.5096 24.2881 21.9476 24.2881 21.3726C24.2881 20.6016 23.9818 19.8622 23.4366 19.317C22.8915 18.7718 22.152 18.4655 21.381 18.4655C20.8061 18.4655 20.244 18.636 19.7659 18.9555C19.2879 19.2749 18.9153 19.7289 18.6952 20.2601C18.4752 20.7913 18.4176 21.3758 18.5298 21.9397C18.642 22.5037 18.9189 23.0216 19.3254 23.4282C19.732 23.8348 20.25 24.1116 20.8139 24.2238C21.3778 24.336 21.9623 24.2784 22.4935 24.0584C23.0247 23.8384 23.4787 23.4657 23.7982 22.9877Z" fill="#AD7955"/>
<path d="M51.3334 23.3331C50.24 23.3331 49.3334 22.4265 49.3334 21.3331V5.33315C49.3334 4.53315 49.8134 3.78648 50.56 3.49315C51.3067 3.19982 52.16 3.35982 52.7467 3.91982L58.08 9.25315C58.8534 10.0265 58.8534 11.3065 58.08 12.0798C57.3067 12.8532 56.0267 12.8532 55.2534 12.0798L53.3334 10.1598V21.3331C53.3334 22.4265 52.4267 23.3331 51.3334 23.3331Z" fill="#AD7955"/>
<path d="M51.3267 23.3331C52.42 23.3331 53.3267 22.4265 53.3267 21.3331V5.33315C53.3267 4.53315 52.8467 3.78648 52.1 3.49315C51.3533 3.19982 50.5 3.35982 49.9133 3.91982L44.58 9.25315C43.8067 10.0265 43.8067 11.3065 44.58 12.0798C45.3533 12.8532 46.6333 12.8532 47.4067 12.0798L49.3267 10.1598V21.3331C49.3267 22.4265 50.2333 23.3331 51.3267 23.3331Z" fill="#AD7955"/>
</svg>
