<svg>
	<defs>
		<symbol id="heart" width="33" height="32" viewBox="0 0 33 32" xmlns="http://www.w3.org/2000/svg">
			<path fill-rule="evenodd" clip-rule="evenodd"
				d="M11.6734 3.5C10.7262 3.5 9.81782 3.87626 9.14807 4.54602C8.47831 5.21577 8.10205 6.12416 8.10205 7.07133C8.10205 8.21342 8.55365 9.38952 9.34091 10.5628C10.1262 11.7333 11.1969 12.8272 12.3076 13.7777C13.4133 14.724 14.5252 15.4997 15.3637 16.0398C15.6622 16.2322 15.9245 16.3936 16.1376 16.5213C16.3506 16.3936 16.6129 16.2322 16.9115 16.0398C17.75 15.4997 18.8619 14.724 19.9676 13.7777C21.0783 12.8272 22.1489 11.7333 22.9342 10.5628C23.7215 9.38952 24.1731 8.21342 24.1731 7.07133C24.1731 6.12416 23.7968 5.21577 23.1271 4.54602C22.4573 3.87626 21.5489 3.5 20.6018 3.5C19.0463 3.5 17.8049 4.3335 17.2944 5.58063C17.1022 6.05028 16.6451 6.35709 16.1376 6.35709C15.6301 6.35709 15.173 6.05028 14.9807 5.58063C14.4702 4.3335 13.2289 3.5 11.6734 3.5ZM16.1376 17.964C15.545 19.0646 15.5447 19.0644 15.5443 19.0642L15.5411 19.0625L15.5339 19.0586L15.5096 19.0453C15.4891 19.0341 15.46 19.018 15.4229 18.9972C15.3486 18.9556 15.2423 18.8953 15.1084 18.8171C14.8408 18.6609 14.4623 18.433 14.0097 18.1415C13.1072 17.56 11.8977 16.7174 10.6821 15.6771C9.47136 14.641 8.22064 13.3802 7.26492 11.9558C6.31114 10.5343 5.60205 8.87562 5.60205 7.07133C5.60205 5.46111 6.24171 3.91685 7.3803 2.77825C8.5189 1.63966 10.0632 1 11.6734 1C13.4074 1 15.0121 1.66809 16.1376 2.84654C17.2631 1.66809 18.8677 1 20.6018 1C22.212 1 23.7563 1.63966 24.8949 2.77825C26.0334 3.91685 26.6731 5.46111 26.6731 7.07133C26.6731 8.87562 25.964 10.5343 25.0102 11.9558C24.0545 13.3802 22.8038 14.641 21.5931 15.6771C20.3774 16.7174 19.1679 17.56 18.2654 18.1415C17.8129 18.433 17.4344 18.6609 17.1668 18.8171C17.0329 18.8953 16.9265 18.9556 16.8523 18.9972C16.8152 19.018 16.7861 19.0341 16.7655 19.0453L16.7412 19.0586L16.734 19.0625L16.7317 19.0638C16.7314 19.0639 16.7302 19.0646 16.1376 17.964ZM16.1376 17.964L16.7302 19.0646C16.3602 19.2638 15.9143 19.2634 15.5443 19.0642L16.1376 17.964Z" />
		</symbol>
		<symbol id="eye" width="22" height="13" viewBox="0 0 22 13" xmlns="http://www.w3.org/2000/svg">
			<path
				d="M21.0511 6.1334C20.9136 5.8958 17.6313 0.35 11 0.35C4.36878 0.35 1.08647 5.89581 0.948957 6.13322L0.948948 6.13323C0.884225 6.245 0.850023 6.37123 0.850023 6.49993C0.850023 6.62861 0.884221 6.75483 0.948936 6.8666L1.07875 6.79146L0.948948 6.86662C1.08666 7.10452 4.36897 12.65 11 12.65C17.6313 12.65 20.9136 7.10419 21.0511 6.86678L21.0511 6.86677C21.1158 6.75499 21.15 6.62877 21.15 6.50008C21.15 6.37139 21.1158 6.24517 21.0511 6.1334ZM21.0511 6.1334L20.9213 6.20855L21.0511 6.13338C21.0511 6.13339 21.0511 6.1334 21.0511 6.1334ZM11 11.15C6.22315 11.15 3.36604 7.66701 2.54309 6.4989C3.36272 5.33003 6.20786 1.85 11 1.85C15.7769 1.85 18.634 5.33299 19.457 6.50111C18.6373 7.66998 15.7922 11.15 11 11.15ZM7.10002 6.5C7.10002 8.57366 8.85519 10.25 11 10.25C13.1449 10.25 14.9 8.57366 14.9 6.5C14.9 4.42635 13.1449 2.75 11 2.75C8.85519 2.75 7.10002 4.42635 7.10002 6.5ZM8.65002 6.5C8.65002 5.26526 9.6986 4.25 11 4.25C12.3015 4.25 13.35 5.26526 13.35 6.5C13.35 7.73475 12.3015 8.75 11 8.75C9.6986 8.75 8.65002 7.73475 8.65002 6.5Z"
				stroke-width="0.3" />
		</symbol>
		<symbol id="search" width="18" height="18" viewBox="0 0 18 18" xmlns="http://www.w3.org/2000/svg">
			<path
				d="M17.1425 15.73L13.8995 12.487C14.8884 11.1978 15.4235 9.61786 15.4215 7.99303C15.4215 6.00803 14.6485 4.14253 13.245 2.73903C12.5567 2.04685 11.7379 1.49808 10.836 1.12448C9.93418 0.750887 8.96718 0.559883 7.99101 0.562527C6.00651 0.562527 4.14101 1.33553 2.73701 2.73903C-0.159489 5.63603 -0.159489 10.35 2.73701 13.247C3.42533 13.9392 4.24412 14.488 5.14598 14.8616C6.04783 15.2352 7.01484 15.4262 7.99101 15.4235C9.63801 15.4235 11.1985 14.884 12.4855 13.901L15.7285 17.1445C15.9235 17.3395 16.1795 17.4375 16.4355 17.4375C16.6915 17.4375 16.9475 17.3395 17.1425 17.1445C17.2354 17.0517 17.3091 16.9414 17.3594 16.8201C17.4097 16.6987 17.4355 16.5686 17.4355 16.4373C17.4355 16.3059 17.4097 16.1759 17.3594 16.0545C17.3091 15.9331 17.2354 15.8229 17.1425 15.73ZM4.15151 11.833C2.03401 9.71553 2.03451 6.27053 4.15151 4.15303C4.65469 3.64732 5.25316 3.24641 5.91229 2.97349C6.57142 2.70057 7.27812 2.56106 7.99151 2.56303C8.70483 2.56107 9.41145 2.70058 10.0705 2.97351C10.7295 3.24643 11.3279 3.64733 11.831 4.15303C12.3369 4.65613 12.7379 5.25458 13.0109 5.91371C13.2839 6.57285 13.4235 7.27959 13.4215 7.99303C13.4215 9.44353 12.8565 10.807 11.831 11.833C10.8055 12.859 9.44201 13.423 7.99101 13.423C6.54101 13.423 5.17701 12.858 4.15101 11.833H4.15151Z" />
		</symbol>
		<symbol id="notify" width="18" height="22" viewBox="0 0 18 22" xmlns="http://www.w3.org/2000/svg">
			<path
				d="M11.0498 19.1818V19.1318H10.9998H7.36344H7.31344V19.1818C7.31344 19.6773 7.51027 20.1525 7.86062 20.5028C8.21097 20.8532 8.68615 21.05 9.18163 21.05C9.6771 21.05 10.1523 20.8532 10.5026 20.5028C10.853 20.1525 11.0498 19.6773 11.0498 19.1818ZM17.3405 16.8219L17.3405 16.8219C17.4132 16.6466 17.4321 16.4537 17.3951 16.2676C17.358 16.0815 17.2666 15.9106 17.1324 15.7765C17.1324 15.7765 17.1324 15.7765 17.1324 15.7765L15.5953 14.2393V9.18182V9.18176C15.5935 7.6408 15.0369 6.15199 14.0274 4.98772C13.0274 3.83437 11.6491 3.07588 10.1407 2.84776V1.90909C10.1407 1.65472 10.0397 1.41078 9.8598 1.23091C9.67994 1.05105 9.43599 0.95 9.18163 0.95C8.92726 0.95 8.68331 1.05105 8.50345 1.23091C8.32358 1.41078 8.22253 1.65472 8.22253 1.90909V2.84776C6.71411 3.07588 5.33585 3.83437 4.33583 4.98772C3.32635 6.15199 2.76979 7.6408 2.76799 9.18176V9.18182V14.2393L1.23081 15.7765L1.23081 15.7765C1.09672 15.9106 1.00541 16.0815 0.968418 16.2675C0.931428 16.4535 0.950421 16.6463 1.023 16.8215C1.09557 16.9968 1.21847 17.1465 1.37615 17.2519C1.53384 17.3573 1.71923 17.4136 1.90889 17.4136H16.4544C16.644 17.4137 16.8294 17.3575 16.9872 17.2522C17.1449 17.1468 17.2679 16.9971 17.3405 16.8219ZM14.1391 15.4955H4.22415L4.40516 15.3145C4.58503 15.1346 4.68612 14.8907 4.68617 14.6364V9.18182C4.68617 7.98955 5.1598 6.84611 6.00286 6.00305C6.84592 5.15999 7.98936 4.68636 9.18163 4.68636C10.3739 4.68636 11.5173 5.15999 12.3604 6.00305C13.2035 6.84611 13.6771 7.98955 13.6771 9.18182V14.6364C13.6771 14.8907 13.7782 15.1346 13.9581 15.3145L14.1391 15.4955Z"
				stroke-width="0.1" />
		</symbol>
		<symbol id="edit" width="17" height="17" viewBox="0 0 17 17" xmlns="http://www.w3.org/2000/svg">
			<path fill-rule="evenodd" clip-rule="evenodd"
				d="M10.0392 4.00011L11.3841 2.65524L14.3447 5.61389L12.999 6.95992L10.0392 4.00011ZM7.91789 3.29301L10.2351 0.975807L10.2353 0.975575C10.54 0.671058 10.9532 0.5 11.384 0.5C11.8148 0.5 12.2279 0.671056 12.5327 0.975569L12.5327 0.975575L16.0241 4.46463L16.0245 4.4651C16.329 4.76982 16.5001 5.18298 16.5001 5.61377C16.5001 6.04457 16.329 6.45773 16.0245 6.76244L16.0244 6.76259L13.7422 9.04531C13.7309 9.05784 13.7192 9.07015 13.7071 9.08222C13.6951 9.09424 13.6828 9.10588 13.6704 9.11716L6.39001 16.3993L6.38953 16.3998C6.08502 16.704 5.67227 16.8749 5.24187 16.8751H5.24141H1.75C1.31903 16.8751 0.905699 16.7039 0.600952 16.3992C0.296205 16.0944 0.125 15.6811 0.125 15.2501V11.7587V11.7582C0.1252 11.3278 0.296141 10.9151 0.600313 10.6106L0.600706 10.6102L5.41789 5.79299L7.91789 3.29301ZM11.585 8.3743L5.08576 14.8751H2.125V11.9143L6.83211 7.20721L8.62499 5.41432L11.585 8.3743Z" />
		</symbol>
		<symbol id="switch" width="20" height="20" viewBox="0 0 20 20" xmlns="http://www.w3.org/2000/svg">
			<path fill-rule="evenodd" clip-rule="evenodd"
				d="M6.40989 3.48145C6.12153 3.48145 5.8472 3.60593 5.65731 3.82294L2.10778 7.87955C1.76981 8.2658 1.77911 8.84518 2.1293 9.22038L9.22837 16.8265C9.34014 16.9463 9.47831 17.0354 9.62986 17.0883C9.67392 17.1037 9.71938 17.1162 9.766 17.1253C9.82923 17.1378 9.89398 17.1442 9.95942 17.1442C9.97787 17.1442 9.99627 17.1437 10.0146 17.1427C10.2919 17.1278 10.5393 16.9999 10.7113 16.8042L17.7895 9.22038C18.1397 8.84518 18.149 8.2658 17.8111 7.87955L14.2615 3.82294C14.0716 3.60593 13.7973 3.48145 13.509 3.48145H6.40989ZM10.9602 13.6064L15.7108 8.51643L13.0552 5.48145H10.9605L10.9602 13.6064ZM8.96051 5.48145H6.86366L4.20805 8.51643L8.96018 13.608L8.96051 5.48145Z" />
		</symbol>
		<symbol id="logout" width="20" height="20" viewBox="0 0 20 20" xmlns="http://www.w3.org/2000/svg">
			<path fill-rule="evenodd" clip-rule="evenodd"
				d="M3.60095 2.60095C3.9057 2.29621 4.31902 2.125 4.75 2.125H9.125C9.67728 2.125 10.125 2.57272 10.125 3.125C10.125 3.67728 9.67728 4.125 9.125 4.125H5.125V15.875H9.125C9.67728 15.875 10.125 16.3227 10.125 16.875C10.125 17.4273 9.67728 17.875 9.125 17.875H4.75C4.31902 17.875 3.9057 17.7038 3.60095 17.399C3.2962 17.0943 3.125 16.681 3.125 16.25V3.75C3.125 3.31902 3.29621 2.9057 3.60095 2.60095ZM8.125 10C8.125 9.44772 8.57272 9 9.125 9H15.4608L14.0429 7.58211C13.6524 7.19158 13.6524 6.55842 14.0429 6.16789C14.4334 5.77737 15.0666 5.77737 15.4571 6.16789L18.5815 9.2923C18.5839 9.29467 18.5863 9.29705 18.5886 9.29945C18.6813 9.3938 18.7514 9.50195 18.7991 9.61722C18.8477 9.73425 18.8746 9.8625 18.875 9.997C18.875 9.998 18.875 9.999 18.875 10C18.875 10.001 18.875 10.002 18.875 10.003C18.8742 10.2746 18.7651 10.5208 18.5886 10.7005C18.5862 10.703 18.5838 10.7054 18.5814 10.7078L15.4571 13.8321C15.0666 14.2226 14.4334 14.2226 14.0429 13.8321C13.6524 13.4416 13.6524 12.8084 14.0429 12.4179L15.4608 11H9.125C8.57272 11 8.125 10.5523 8.125 10Z" />
		</symbol>
		<symbol id="subscribers" width="44" height="27" viewBox="0 0 44 27" xmlns="http://www.w3.org/2000/svg">
			<path
				d="M22.0008 14.8462C20.5513 14.8462 19.1344 14.4164 17.9292 13.6111C16.724 12.8058 15.7847 11.6612 15.23 10.3221C14.6753 8.98291 14.5301 7.50934 14.8129 6.08771C15.0957 4.66607 15.7937 3.36021 16.8186 2.33527C17.8436 1.31032 19.1494 0.612325 20.5711 0.329544C21.9927 0.0467625 23.4663 0.191896 24.8054 0.746592C26.1446 1.30129 27.2892 2.24063 28.0945 3.44584C28.8998 4.65105 29.3296 6.06798 29.3296 7.51747C29.326 9.46006 28.5527 11.322 27.179 12.6957C25.8054 14.0693 23.9434 14.8426 22.0008 14.8462ZM22.0008 3.11747C21.1306 3.11747 20.2799 3.37553 19.5563 3.85901C18.8328 4.34249 18.2688 5.02967 17.9358 5.83367C17.6027 6.63766 17.5156 7.52236 17.6854 8.37587C17.8552 9.22939 18.2742 10.0134 18.8896 10.6287C19.5049 11.2441 20.2889 11.6632 21.1424 11.8329C21.996 12.0027 22.8806 11.9156 23.6846 11.5825C24.4886 11.2495 25.1758 10.6856 25.6593 9.96198C26.1428 9.23841 26.4008 8.38771 26.4008 7.51747C26.4008 6.35052 25.9373 5.23137 25.1121 4.4062C24.2869 3.58104 23.1678 3.11747 22.0008 3.11747ZM36.6721 16.3175C35.5109 16.3175 34.3757 15.9731 33.4102 15.328C32.4447 14.6828 31.6921 13.7659 31.2478 12.6931C30.8034 11.6202 30.6871 10.4397 30.9137 9.3008C31.1402 8.16189 31.6994 7.11573 32.5205 6.29462C33.3416 5.47351 34.3878 4.91433 35.5267 4.68779C36.6656 4.46125 37.8461 4.57752 38.9189 5.0219C39.9917 5.46628 40.9087 6.21881 41.5539 7.18433C42.199 8.14985 42.5433 9.285 42.5433 10.4462C42.5433 12.0034 41.9248 13.4967 40.8237 14.5978C39.7226 15.6989 38.2292 16.3175 36.6721 16.3175ZM36.6721 7.51747C36.0928 7.51747 35.5266 7.68924 35.045 8.01106C34.5633 8.33287 34.1879 8.79028 33.9663 9.32544C33.7446 9.8606 33.6866 10.4495 33.7996 11.0176C33.9126 11.5857 34.1916 12.1076 34.6012 12.5172C35.0107 12.9268 35.5326 13.2057 36.1007 13.3187C36.6688 13.4317 37.2577 13.3737 37.7929 13.152C38.328 12.9304 38.7854 12.555 39.1073 12.0733C39.4291 11.5917 39.6008 11.0255 39.6008 10.4462C39.5972 9.67059 39.2875 8.92774 38.739 8.37928C38.1906 7.83081 37.4477 7.52109 36.6721 7.51747ZM7.32959 16.3175C6.16837 16.3175 5.03322 15.9731 4.0677 15.328C3.10217 14.6828 2.34964 13.7659 1.90526 12.6931C1.46088 11.6202 1.34461 10.4397 1.57115 9.3008C1.7977 8.16189 2.35688 7.11573 3.17799 6.29462C3.9991 5.47351 5.04525 4.91433 6.18417 4.68779C7.32308 4.46125 8.50359 4.57752 9.57642 5.0219C10.6493 5.46628 11.5662 6.21881 12.2114 7.18433C12.8565 8.14985 13.2008 9.285 13.2008 10.4462C13.2008 12.0034 12.5823 13.4967 11.4812 14.5978C10.3801 15.6989 8.88674 16.3175 7.32959 16.3175ZM7.32959 7.51747C6.75034 7.51747 6.18409 7.68924 5.70246 8.01106C5.22083 8.33287 4.84545 8.79028 4.62378 9.32544C4.40211 9.8606 4.34411 10.4495 4.45711 11.0176C4.57012 11.5857 4.84906 12.1076 5.25865 12.5172C5.66824 12.9268 6.1901 13.2057 6.75822 13.3187C7.32634 13.4317 7.91521 13.3737 8.45037 13.152C8.98553 12.9304 9.44294 12.555 9.76476 12.0733C10.0866 11.5917 10.2583 11.0255 10.2583 10.4462C10.2547 9.67059 9.945 8.92774 9.39653 8.37928C8.84807 7.83081 8.10523 7.52109 7.32959 7.51747ZM30.8008 26.3137C30.4291 26.311 30.0722 26.1678 29.8018 25.9127C29.5315 25.6576 29.3676 25.3096 29.3433 24.9387C29.2202 23.6793 28.6322 22.511 27.6941 21.6619C26.7559 20.8127 25.535 20.3436 24.2696 20.3462H19.7321C18.4667 20.3436 17.2458 20.8127 16.3076 21.6619C15.3695 22.511 14.7815 23.6793 14.6583 24.9387C14.5879 25.298 14.3861 25.618 14.0923 25.8364C13.7985 26.0548 13.4338 26.1558 13.0696 26.1197C12.7053 26.0836 12.3675 25.9131 12.1223 25.6413C11.877 25.3695 11.7419 25.016 11.7433 24.65C11.9543 22.681 12.8878 20.8601 14.3634 19.5394C15.839 18.2188 17.7518 17.4921 19.7321 17.5H24.2696C26.2627 17.4942 28.1863 18.2323 29.6638 19.57C31.1414 20.9077 32.0666 22.7486 32.2583 24.7325C32.2772 24.9291 32.2562 25.1274 32.1967 25.3157C32.1373 25.5041 32.0405 25.6785 31.9122 25.8286C31.7839 25.9787 31.6267 26.1015 31.4499 26.1896C31.2731 26.2776 31.0805 26.3292 30.8833 26.3412L30.8008 26.3137ZM42.5296 25.3237C42.1579 25.321 41.801 25.1778 41.5306 24.9227C41.2602 24.6676 41.0964 24.3196 41.0721 23.9487C41.0033 23.2291 40.6671 22.5616 40.1299 22.0778C39.5927 21.5941 38.8937 21.3295 38.1708 21.3362H35.1458C34.8573 21.3375 34.5703 21.3792 34.2933 21.46C34.1016 21.5674 33.8882 21.6304 33.6688 21.6446C33.4495 21.6587 33.2298 21.6234 33.0258 21.5415C32.8219 21.4595 32.6389 21.3329 32.4903 21.1709C32.3417 21.009 32.2313 20.8158 32.1672 20.6055C32.103 20.3953 32.0868 20.1734 32.1197 19.9561C32.1527 19.7387 32.2338 19.5316 32.3573 19.3497C32.4808 19.1679 32.6435 19.0161 32.8334 18.9053C33.0232 18.7946 33.2355 18.7279 33.4546 18.71C34.0037 18.5475 34.5732 18.4641 35.1458 18.4625H38.1708C39.6229 18.4522 41.0263 18.9855 42.1051 19.9574C43.1839 20.9294 43.8601 22.2697 44.0008 23.715C44.0197 23.9116 43.9987 24.1099 43.9392 24.2982C43.8798 24.4866 43.783 24.661 43.6547 24.8111C43.5264 24.9612 43.3692 25.084 43.1924 25.1721C43.0156 25.2601 42.823 25.3117 42.6258 25.3237H42.5296ZM1.47209 25.3237H1.37584C1.17872 25.3117 0.986038 25.2601 0.809277 25.1721C0.632517 25.084 0.475296 24.9612 0.346986 24.8111C0.218676 24.661 0.121902 24.4866 0.0624327 24.2982C0.00296343 24.1099 -0.0179841 23.9116 0.000838691 23.715C0.141337 22.2721 0.815612 20.9337 1.89152 19.9621C2.96743 18.9905 4.3674 18.4557 5.81709 18.4625H8.84209C9.41474 18.4641 9.98422 18.5475 10.5333 18.71C10.7524 18.7279 10.9647 18.7946 11.1546 18.9053C11.3444 19.0161 11.5071 19.1679 11.6306 19.3497C11.7541 19.5316 11.8353 19.7387 11.8682 19.9561C11.9011 20.1734 11.8849 20.3953 11.8208 20.6055C11.7566 20.8158 11.6462 21.009 11.4976 21.1709C11.349 21.3329 11.1661 21.4595 10.9621 21.5415C10.7582 21.6234 10.5384 21.6587 10.3191 21.6446C10.0998 21.6304 9.88636 21.5674 9.69459 21.46C9.41758 21.3792 9.13064 21.3375 8.84209 21.3362H5.81709C5.09426 21.3295 4.3952 21.5941 3.85803 22.0778C3.32086 22.5616 2.98465 23.2291 2.91584 23.9487C2.89173 24.3173 2.72986 24.6633 2.46238 24.9181C2.19491 25.1728 1.84141 25.3176 1.47209 25.3237Z" />
		</symbol>
		<symbol id="videos" width="44" height="30" viewBox="0 0 44 30" xmlns="http://www.w3.org/2000/svg">
			<path
				d="M42.822 4.42691C42.4646 4.21771 42.058 4.10745 41.6439 4.10745C41.2297 4.10745 40.8231 4.21771 40.4657 4.42691L33.7562 8.30071V6.80463C33.7545 5.24503 33.1341 3.74983 32.0313 2.64703C30.9285 1.54423 29.4333 0.923893 27.8737 0.922119H5.88242C4.32284 0.923893 2.82764 1.54423 1.72485 2.64703C0.622064 3.74983 0.00175139 5.24504 0 6.80463L0 23.1953C0.00175139 24.7549 0.622064 26.2501 1.72485 27.3529C2.82764 28.4557 4.32284 29.076 5.88242 29.0778H27.8733C29.433 29.0762 30.9283 28.4559 32.0312 27.3531C33.1341 26.2503 33.7545 24.755 33.7562 23.1953V21.6991L40.4662 25.5731C40.8243 25.7798 41.2306 25.8886 41.6441 25.8885C42.0576 25.8884 42.4639 25.7795 42.822 25.5728C43.1801 25.366 43.4775 25.0686 43.6843 24.7105C43.891 24.3524 43.9999 23.9461 44 23.5326V6.46732C44.0025 6.05326 43.8946 5.64601 43.6876 5.28741C43.4806 4.92881 43.1818 4.63181 42.822 4.42691ZM31.0056 23.1957C31.0046 24.0262 30.6743 24.8224 30.087 25.4096C29.4998 25.9969 28.7036 26.3272 27.8731 26.3282H5.88242C5.05187 26.3272 4.25562 25.9968 3.66837 25.4095C3.08112 24.8222 2.75084 24.0259 2.75 23.1953V6.80463C2.75093 5.97414 3.08125 5.17793 3.66849 4.59067C4.25573 4.00342 5.05193 3.67307 5.88242 3.67212H27.8733C28.7039 3.67294 29.5002 4.00322 30.0876 4.59049C30.6749 5.17776 31.0053 5.97405 31.0062 6.80463L31.0056 23.1957ZM41.25 22.8505L33.7562 18.5234V11.4765L41.25 7.14941V22.8505Z" />
		</symbol>
		<symbol id="views" width="44" height="30" viewBox="0 0 44 30" xmlns="http://www.w3.org/2000/svg">
			<path
				d="M43.0613 12.6255C39.323 8.66008 35.5714 5.66266 31.9114 3.71644C28.1701 1.72681 24.416 0.774795 20.755 0.886772C17.2794 0.993163 13.8211 2.05982 10.476 4.05726C7.2007 6.01312 3.94565 8.91763 0.801626 12.6899C0.272085 13.319 -0.0130792 14.1177 -0.00162077 14.9399C0.00983765 15.7621 0.317151 16.5526 0.864017 17.1666C4.33306 21.1 7.86199 24.0992 11.3529 26.0806C14.9087 28.099 18.5248 29.1221 22.1024 29.1221H22.1404C25.705 29.1148 29.299 28.0913 32.8218 26.0799C36.2686 24.1119 39.7427 21.1406 43.1472 17.2486C43.7132 16.6066 44.0182 15.776 44.0023 14.9203C43.9864 14.0647 43.6507 13.246 43.0613 12.6255ZM41.0779 15.4376C34.7422 22.6806 28.3689 26.3594 22.1348 26.3721H22.1025C15.8301 26.3721 9.37784 22.6626 2.92617 15.3473C2.81505 15.2251 2.75246 15.0665 2.7502 14.9014C2.74793 14.7363 2.80615 14.576 2.91388 14.4509C8.74045 7.45996 14.7715 3.82111 20.839 3.63548C21.003 3.6305 21.1672 3.62801 21.3317 3.62801C27.6144 3.62801 34.249 7.2874 41.0607 14.5122C41.1787 14.6364 41.2459 14.8003 41.2491 14.9716C41.2523 15.1428 41.1912 15.3091 41.0779 15.4376ZM22.0003 7.11088C20.44 7.11088 18.9147 7.57357 17.6173 8.44043C16.32 9.30729 15.3088 10.5394 14.7117 11.9809C14.1146 13.4225 13.9584 15.0087 14.2628 16.539C14.5672 18.0694 15.3185 19.475 16.4219 20.5784C17.5252 21.6817 18.9309 22.433 20.4612 22.7374C21.9915 23.0418 23.5777 22.8856 25.0193 22.2885C26.4608 21.6914 27.6929 20.6802 28.5598 19.3829C29.4266 18.0855 29.8893 16.5603 29.8893 14.9999C29.887 12.9083 29.0552 10.903 27.5762 9.42405C26.0972 7.94505 24.0919 7.11316 22.0003 7.11088ZM22.0003 20.139C20.9839 20.139 19.9903 19.8376 19.1451 19.2729C18.3 18.7082 17.6413 17.9056 17.2524 16.9666C16.8634 16.0275 16.7617 14.9942 16.9599 13.9974C17.1582 13.0005 17.6477 12.0848 18.3664 11.3661C19.0851 10.6474 20.0008 10.1579 20.9977 9.95963C21.9946 9.76134 23.0279 9.8631 23.9669 10.2521C24.9059 10.641 25.7085 11.2997 26.2732 12.1448C26.8379 12.9899 27.1393 13.9835 27.1393 14.9999C27.1378 16.3624 26.5959 17.6687 25.6324 18.6321C24.669 19.5956 23.3628 20.1375 22.0003 20.139Z" />
		</symbol>
		<symbol id="facebook" width="20" height="20" viewBox="0 0 20 20" xmlns="http://www.w3.org/2000/svg">
			<path
				d="M10 0C4.477 0 0 4.477 0 10C0 14.991 3.657 19.128 8.438 19.879V12.89H5.898V10H8.438V7.797C8.438 5.291 9.93 3.907 12.215 3.907C13.309 3.907 14.453 4.102 14.453 4.102V6.562H13.193C11.95 6.562 11.563 7.333 11.563 8.124V10H14.336L13.893 12.89H11.563V19.879C16.343 19.129 20 14.99 20 10C20 4.477 15.523 0 10 0Z" />
		</symbol>
		<symbol id="instagram" width="20" height="20" viewBox="0 0 20 20" xmlns="http://www.w3.org/2000/svg">
			<path
				d="M10 0C12.717 0 13.056 0.00999994 14.122 0.0599999C15.187 0.11 15.912 0.277 16.55 0.525C17.21 0.779 17.766 1.123 18.322 1.678C18.8305 2.1779 19.224 2.78259 19.475 3.45C19.722 4.087 19.89 4.813 19.94 5.878C19.987 6.944 20 7.283 20 10C20 12.717 19.99 13.056 19.94 14.122C19.89 15.187 19.722 15.912 19.475 16.55C19.2247 17.2178 18.8311 17.8226 18.322 18.322C17.822 18.8303 17.2173 19.2238 16.55 19.475C15.913 19.722 15.187 19.89 14.122 19.94C13.056 19.987 12.717 20 10 20C7.283 20 6.944 19.99 5.878 19.94C4.813 19.89 4.088 19.722 3.45 19.475C2.78233 19.2245 2.17753 18.8309 1.678 18.322C1.16941 17.8222 0.775931 17.2175 0.525 16.55C0.277 15.913 0.11 15.187 0.0599999 14.122C0.0129999 13.056 0 12.717 0 10C0 7.283 0.00999994 6.944 0.0599999 5.878C0.11 4.812 0.277 4.088 0.525 3.45C0.775236 2.78218 1.1688 2.17732 1.678 1.678C2.17767 1.16923 2.78243 0.775729 3.45 0.525C4.088 0.277 4.812 0.11 5.878 0.0599999C6.944 0.0129999 7.283 0 10 0ZM10 5C8.67392 5 7.40215 5.52678 6.46447 6.46447C5.52678 7.40215 5 8.67392 5 10C5 11.3261 5.52678 12.5979 6.46447 13.5355C7.40215 14.4732 8.67392 15 10 15C11.3261 15 12.5979 14.4732 13.5355 13.5355C14.4732 12.5979 15 11.3261 15 10C15 8.67392 14.4732 7.40215 13.5355 6.46447C12.5979 5.52678 11.3261 5 10 5ZM16.5 4.75C16.5 4.41848 16.3683 4.10054 16.1339 3.86612C15.8995 3.6317 15.5815 3.5 15.25 3.5C14.9185 3.5 14.6005 3.6317 14.3661 3.86612C14.1317 4.10054 14 4.41848 14 4.75C14 5.08152 14.1317 5.39946 14.3661 5.63388C14.6005 5.8683 14.9185 6 15.25 6C15.5815 6 15.8995 5.8683 16.1339 5.63388C16.3683 5.39946 16.5 5.08152 16.5 4.75ZM10 7C10.7956 7 11.5587 7.31607 12.1213 7.87868C12.6839 8.44129 13 9.20435 13 10C13 10.7956 12.6839 11.5587 12.1213 12.1213C11.5587 12.6839 10.7956 13 10 13C9.20435 13 8.44129 12.6839 7.87868 12.1213C7.31607 11.5587 7 10.7956 7 10C7 9.20435 7.31607 8.44129 7.87868 7.87868C8.44129 7.31607 9.20435 7 10 7Z" />
		</symbol>
		<symbol id="twitter" width="20" height="20" viewBox="0 0 20 20" xmlns="http://www.w3.org/2000/svg">
			<path
				d="M21.1623 2.65593C20.3989 2.99362 19.5893 3.2154 18.7603 3.31393C19.634 2.79136 20.288 1.96894 20.6003 0.999927C19.7803 1.48793 18.8813 1.82993 17.9443 2.01493C17.3149 1.34151 16.4807 0.89489 15.5713 0.744511C14.6618 0.594133 13.7282 0.748418 12.9156 1.18338C12.1029 1.61834 11.4567 2.30961 11.0774 3.14972C10.6981 3.98983 10.607 4.93171 10.8183 5.82893C9.15541 5.74558 7.52863 5.31345 6.04358 4.56059C4.55854 3.80773 3.24842 2.75097 2.1983 1.45893C1.82659 2.09738 1.63125 2.82315 1.6323 3.56193C1.6323 5.01193 2.3703 6.29293 3.4923 7.04293C2.82831 7.02202 2.17893 6.84271 1.5983 6.51993V6.57193C1.5985 7.53763 1.93267 8.47354 2.54414 9.22099C3.15562 9.96843 4.00678 10.4814 4.9533 10.6729C4.33691 10.84 3.6906 10.8646 3.0633 10.7449C3.33016 11.5762 3.8503 12.3031 4.55089 12.824C5.25147 13.3449 6.09742 13.6337 6.9703 13.6499C6.10278 14.3313 5.10947 14.8349 4.04718 15.1321C2.98488 15.4293 1.87442 15.5142 0.779297 15.3819C2.69099 16.6114 4.91639 17.264 7.1893 17.2619C14.8823 17.2619 19.0893 10.8889 19.0893 5.36193C19.0893 5.18193 19.0843 4.99993 19.0763 4.82193C19.8952 4.23009 20.6019 3.49695 21.1633 2.65693L21.1623 2.65593Z" />
		</symbol>
		<symbol id="cart" width="18" height="18" viewBox="0 0 18 18" xmlns="http://www.w3.org/2000/svg">
			<path
				d="M9 9C9.19891 9 9.38968 9.07902 9.53033 9.21967C9.67098 9.36032 9.75 9.55109 9.75 9.75V14.25C9.75 14.4489 9.67098 14.6397 9.53033 14.7803C9.38968 14.921 9.19891 15 9 15C8.80109 15 8.61032 14.921 8.46967 14.7803C8.32902 14.6397 8.25 14.4489 8.25 14.25V9.75C8.25 9.55109 8.32902 9.36032 8.46967 9.21967C8.61032 9.07902 8.80109 9 9 9ZM6.75 10.5C6.94891 10.5 7.13968 10.579 7.28033 10.7197C7.42098 10.8603 7.5 11.0511 7.5 11.25V14.25C7.5 14.4489 7.42098 14.6397 7.28033 14.7803C7.13968 14.921 6.94891 15 6.75 15C6.55109 15 6.36032 14.921 6.21967 14.7803C6.07902 14.6397 6 14.4489 6 14.25V11.25C6 11.0511 6.07902 10.8603 6.21967 10.7197C6.36032 10.579 6.55109 10.5 6.75 10.5ZM11.25 10.5C11.4489 10.5 11.6397 10.579 11.7803 10.7197C11.921 10.8603 12 11.0511 12 11.25V14.25C12 14.4489 11.921 14.6397 11.7803 14.7803C11.6397 14.921 11.4489 15 11.25 15C11.0511 15 10.8603 14.921 10.7197 14.7803C10.579 14.6397 10.5 14.4489 10.5 14.25V11.25C10.5 11.0511 10.579 10.8603 10.7197 10.7197C10.8603 10.579 11.0511 10.5 11.25 10.5Z" />
			<path fill-rule="evenodd" clip-rule="evenodd"
				d="M6.75 0C6.15326 0 5.58097 0.237053 5.15901 0.65901C4.73705 1.08097 4.5 1.65326 4.5 2.25V3H0.75C0.551088 3 0.360322 3.07902 0.21967 3.21967C0.0790178 3.36032 0 3.55109 0 3.75C0 3.94891 0.0790178 4.13968 0.21967 4.28033C0.360322 4.42098 0.551088 4.5 0.75 4.5H1.57875L2.856 15.9982C2.9171 16.5487 3.17905 17.0572 3.5917 17.4265C4.00434 17.7959 4.53871 18.0001 5.0925 18H12.9075C13.4613 18.0001 13.9957 17.7959 14.4083 17.4265C14.821 17.0572 15.0829 16.5487 15.144 15.9982L16.4212 4.5H17.25C17.4489 4.5 17.6397 4.42098 17.7803 4.28033C17.921 4.13968 18 3.94891 18 3.75C18 3.55109 17.921 3.36032 17.7803 3.21967C17.6397 3.07902 17.4489 3 17.25 3H13.5V2.25C13.5 1.65326 13.2629 1.08097 12.841 0.65901C12.419 0.237053 11.8467 0 11.25 0H6.75ZM12 3V2.25C12 2.05109 11.921 1.86032 11.7803 1.71967C11.6397 1.57902 11.4489 1.5 11.25 1.5H6.75C6.55109 1.5 6.36032 1.57902 6.21967 1.71967C6.07902 1.86032 6 2.05109 6 2.25V3H12ZM4.347 15.8325L3.08775 4.5H14.9122L13.6522 15.8325C13.632 16.0159 13.5448 16.1854 13.4074 16.3085C13.27 16.4317 13.092 16.4998 12.9075 16.5H5.0925C4.90786 16.5 4.72971 16.4319 4.59216 16.3088C4.4546 16.1856 4.36731 16.016 4.347 15.8325Z" />
		</symbol>
		<symbol id="points" width="6" height="20" viewBox="0 0 6 20" xmlns="http://www.w3.org/2000/svg">
			<path
				d="M0.75 10C0.75 11.2405 1.7595 12.25 3 12.25C4.2405 12.25 5.25 11.2405 5.25 10C5.25 8.7595 4.2405 7.75 3 7.75C1.7595 7.75 0.75 8.7595 0.75 10ZM0.75 17.5C0.75 18.7405 1.7595 19.75 3 19.75C4.2405 19.75 5.25 18.7405 5.25 17.5C5.25 16.2595 4.2405 15.25 3 15.25C1.7595 15.25 0.75 16.2595 0.75 17.5ZM0.75 2.5C0.75 3.7405 1.7595 4.75 3 4.75C4.2405 4.75 5.25 3.7405 5.25 2.5C5.25 1.2595 4.2405 0.25 3 0.25C1.7595 0.25 0.75 1.2595 0.75 2.5Z"/>
		</symbol>
		<symbol id="user" width="24" height="24" viewBox="0 0 496 512" xmlns="http://www.w3.org/2000/svg">
			<path d="M248 8C111 8 0 119 0 256s111 248 248 248 248-111 248-248S385 8 248 8zm0 96c48.6 0 88 39.4 88 88s-39.4 88-88 88-88-39.4-88-88 39.4-88 88-88zm0 344c-58.7 0-111.3-26.6-146.5-68.2 18.8-35.4 55.6-59.8 98.5-59.8 2.4 0 4.8.4 7.1 1.1 13 4.2 26.6 6.9 40.9 6.9 14.3 0 28-2.7 40.9-6.9 2.3-.7 4.7-1.1 7.1-1.1 42.9 0 79.7 24.4 98.5 59.8C359.3 421.4 306.7 448 248 448z"/>
		</symbol>
	</defs>
</svg>
