<svg>
	<defs>
		<symbol id="heart" width="33" height="32" viewBox="0 0 33 32" xmlns="http://www.w3.org/2000/svg">
			<path fill-rule="evenodd" clip-rule="evenodd"
				d="M11.6734 3.5C10.7262 3.5 9.81782 3.87626 9.14807 4.54602C8.47831 5.21577 8.10205 6.12416 8.10205 7.07133C8.10205 8.21342 8.55365 9.38952 9.34091 10.5628C10.1262 11.7333 11.1969 12.8272 12.3076 13.7777C13.4133 14.724 14.5252 15.4997 15.3637 16.0398C15.6622 16.2322 15.9245 16.3936 16.1376 16.5213C16.3506 16.3936 16.6129 16.2322 16.9115 16.0398C17.75 15.4997 18.8619 14.724 19.9676 13.7777C21.0783 12.8272 22.1489 11.7333 22.9342 10.5628C23.7215 9.38952 24.1731 8.21342 24.1731 7.07133C24.1731 6.12416 23.7968 5.21577 23.1271 4.54602C22.4573 3.87626 21.5489 3.5 20.6018 3.5C19.0463 3.5 17.8049 4.3335 17.2944 5.58063C17.1022 6.05028 16.6451 6.35709 16.1376 6.35709C15.6301 6.35709 15.173 6.05028 14.9807 5.58063C14.4702 4.3335 13.2289 3.5 11.6734 3.5ZM16.1376 17.964C15.545 19.0646 15.5447 19.0644 15.5443 19.0642L15.5411 19.0625L15.5339 19.0586L15.5096 19.0453C15.4891 19.0341 15.46 19.018 15.4229 18.9972C15.3486 18.9556 15.2423 18.8953 15.1084 18.8171C14.8408 18.6609 14.4623 18.433 14.0097 18.1415C13.1072 17.56 11.8977 16.7174 10.6821 15.6771C9.47136 14.641 8.22064 13.3802 7.26492 11.9558C6.31114 10.5343 5.60205 8.87562 5.60205 7.07133C5.60205 5.46111 6.24171 3.91685 7.3803 2.77825C8.5189 1.63966 10.0632 1 11.6734 1C13.4074 1 15.0121 1.66809 16.1376 2.84654C17.2631 1.66809 18.8677 1 20.6018 1C22.212 1 23.7563 1.63966 24.8949 2.77825C26.0334 3.91685 26.6731 5.46111 26.6731 7.07133C26.6731 8.87562 25.964 10.5343 25.0102 11.9558C24.0545 13.3802 22.8038 14.641 21.5931 15.6771C20.3774 16.7174 19.1679 17.56 18.2654 18.1415C17.8129 18.433 17.4344 18.6609 17.1668 18.8171C17.0329 18.8953 16.9265 18.9556 16.8523 18.9972C16.8152 19.018 16.7861 19.0341 16.7655 19.0453L16.7412 19.0586L16.734 19.0625L16.7317 19.0638C16.7314 19.0639 16.7302 19.0646 16.1376 17.964ZM16.1376 17.964L16.7302 19.0646C16.3602 19.2638 15.9143 19.2634 15.5443 19.0642L16.1376 17.964Z" />
		</symbol>
		<symbol id="eye" width="22" height="13" viewBox="0 0 22 13" xmlns="http://www.w3.org/2000/svg">
			<path
				d="M21.0511 6.1334C20.9136 5.8958 17.6313 0.35 11 0.35C4.36878 0.35 1.08647 5.89581 0.948957 6.13322L0.948948 6.13323C0.884225 6.245 0.850023 6.37123 0.850023 6.49993C0.850023 6.62861 0.884221 6.75483 0.948936 6.8666L1.07875 6.79146L0.948948 6.86662C1.08666 7.10452 4.36897 12.65 11 12.65C17.6313 12.65 20.9136 7.10419 21.0511 6.86678L21.0511 6.86677C21.1158 6.75499 21.15 6.62877 21.15 6.50008C21.15 6.37139 21.1158 6.24517 21.0511 6.1334ZM21.0511 6.1334L20.9213 6.20855L21.0511 6.13338C21.0511 6.13339 21.0511 6.1334 21.0511 6.1334ZM11 11.15C6.22315 11.15 3.36604 7.66701 2.54309 6.4989C3.36272 5.33003 6.20786 1.85 11 1.85C15.7769 1.85 18.634 5.33299 19.457 6.50111C18.6373 7.66998 15.7922 11.15 11 11.15ZM7.10002 6.5C7.10002 8.57366 8.85519 10.25 11 10.25C13.1449 10.25 14.9 8.57366 14.9 6.5C14.9 4.42635 13.1449 2.75 11 2.75C8.85519 2.75 7.10002 4.42635 7.10002 6.5ZM8.65002 6.5C8.65002 5.26526 9.6986 4.25 11 4.25C12.3015 4.25 13.35 5.26526 13.35 6.5C13.35 7.73475 12.3015 8.75 11 8.75C9.6986 8.75 8.65002 7.73475 8.65002 6.5Z"
				stroke-width="0.3" />
		</symbol>
		<symbol id="search" width="18" height="18" viewBox="0 0 18 18" xmlns="http://www.w3.org/2000/svg">
			<path
				d="M17.1425 15.73L13.8995 12.487C14.8884 11.1978 15.4235 9.61786 15.4215 7.99303C15.4215 6.00803 14.6485 4.14253 13.245 2.73903C12.5567 2.04685 11.7379 1.49808 10.836 1.12448C9.93418 0.750887 8.96718 0.559883 7.99101 0.562527C6.00651 0.562527 4.14101 1.33553 2.73701 2.73903C-0.159489 5.63603 -0.159489 10.35 2.73701 13.247C3.42533 13.9392 4.24412 14.488 5.14598 14.8616C6.04783 15.2352 7.01484 15.4262 7.99101 15.4235C9.63801 15.4235 11.1985 14.884 12.4855 13.901L15.7285 17.1445C15.9235 17.3395 16.1795 17.4375 16.4355 17.4375C16.6915 17.4375 16.9475 17.3395 17.1425 17.1445C17.2354 17.0517 17.3091 16.9414 17.3594 16.8201C17.4097 16.6987 17.4355 16.5686 17.4355 16.4373C17.4355 16.3059 17.4097 16.1759 17.3594 16.0545C17.3091 15.9331 17.2354 15.8229 17.1425 15.73ZM4.15151 11.833C2.03401 9.71553 2.03451 6.27053 4.15151 4.15303C4.65469 3.64732 5.25316 3.24641 5.91229 2.97349C6.57142 2.70057 7.27812 2.56106 7.99151 2.56303C8.70483 2.56107 9.41145 2.70058 10.0705 2.97351C10.7295 3.24643 11.3279 3.64733 11.831 4.15303C12.3369 4.65613 12.7379 5.25458 13.0109 5.91371C13.2839 6.57285 13.4235 7.27959 13.4215 7.99303C13.4215 9.44353 12.8565 10.807 11.831 11.833C10.8055 12.859 9.44201 13.423 7.99101 13.423C6.54101 13.423 5.17701 12.858 4.15101 11.833H4.15151Z" />
		</symbol>
		<symbol id="notify" width="18" height="22" viewBox="0 0 18 22" xmlns="http://www.w3.org/2000/svg">
			<path
				d="M11.0498 19.1818V19.1318H10.9998H7.36344H7.31344V19.1818C7.31344 19.6773 7.51027 20.1525 7.86062 20.5028C8.21097 20.8532 8.68615 21.05 9.18163 21.05C9.6771 21.05 10.1523 20.8532 10.5026 20.5028C10.853 20.1525 11.0498 19.6773 11.0498 19.1818ZM17.3405 16.8219L17.3405 16.8219C17.4132 16.6466 17.4321 16.4537 17.3951 16.2676C17.358 16.0815 17.2666 15.9106 17.1324 15.7765C17.1324 15.7765 17.1324 15.7765 17.1324 15.7765L15.5953 14.2393V9.18182V9.18176C15.5935 7.6408 15.0369 6.15199 14.0274 4.98772C13.0274 3.83437 11.6491 3.07588 10.1407 2.84776V1.90909C10.1407 1.65472 10.0397 1.41078 9.8598 1.23091C9.67994 1.05105 9.43599 0.95 9.18163 0.95C8.92726 0.95 8.68331 1.05105 8.50345 1.23091C8.32358 1.41078 8.22253 1.65472 8.22253 1.90909V2.84776C6.71411 3.07588 5.33585 3.83437 4.33583 4.98772C3.32635 6.15199 2.76979 7.6408 2.76799 9.18176V9.18182V14.2393L1.23081 15.7765L1.23081 15.7765C1.09672 15.9106 1.00541 16.0815 0.968418 16.2675C0.931428 16.4535 0.950421 16.6463 1.023 16.8215C1.09557 16.9968 1.21847 17.1465 1.37615 17.2519C1.53384 17.3573 1.71923 17.4136 1.90889 17.4136H16.4544C16.644 17.4137 16.8294 17.3575 16.9872 17.2522C17.1449 17.1468 17.2679 16.9971 17.3405 16.8219ZM14.1391 15.4955H4.22415L4.40516 15.3145C4.58503 15.1346 4.68612 14.8907 4.68617 14.6364V9.18182C4.68617 7.98955 5.1598 6.84611 6.00286 6.00305C6.84592 5.15999 7.98936 4.68636 9.18163 4.68636C10.3739 4.68636 11.5173 5.15999 12.3604 6.00305C13.2035 6.84611 13.6771 7.98955 13.6771 9.18182V14.6364C13.6771 14.8907 13.7782 15.1346 13.9581 15.3145L14.1391 15.4955Z"
				stroke-width="0.1" />
		</symbol>
		<symbol id="edit" width="17" height="17" viewBox="0 0 17 17" xmlns="http://www.w3.org/2000/svg">
			<path fill-rule="evenodd" clip-rule="evenodd"
				d="M10.0392 4.00011L11.3841 2.65524L14.3447 5.61389L12.999 6.95992L10.0392 4.00011ZM7.91789 3.29301L10.2351 0.975807L10.2353 0.975575C10.54 0.671058 10.9532 0.5 11.384 0.5C11.8148 0.5 12.2279 0.671056 12.5327 0.975569L12.5327 0.975575L16.0241 4.46463L16.0245 4.4651C16.329 4.76982 16.5001 5.18298 16.5001 5.61377C16.5001 6.04457 16.329 6.45773 16.0245 6.76244L16.0244 6.76259L13.7422 9.04531C13.7309 9.05784 13.7192 9.07015 13.7071 9.08222C13.6951 9.09424 13.6828 9.10588 13.6704 9.11716L6.39001 16.3993L6.38953 16.3998C6.08502 16.704 5.67227 16.8749 5.24187 16.8751H5.24141H1.75C1.31903 16.8751 0.905699 16.7039 0.600952 16.3992C0.296205 16.0944 0.125 15.6811 0.125 15.2501V11.7587V11.7582C0.1252 11.3278 0.296141 10.9151 0.600313 10.6106L0.600706 10.6102L5.41789 5.79299L7.91789 3.29301ZM11.585 8.3743L5.08576 14.8751H2.125V11.9143L6.83211 7.20721L8.62499 5.41432L11.585 8.3743Z" />
		</symbol>
		<symbol id="switch" width="20" height="20" viewBox="0 0 20 20" xmlns="http://www.w3.org/2000/svg">
			<path fill-rule="evenodd" clip-rule="evenodd"
				d="M6.40989 3.48145C6.12153 3.48145 5.8472 3.60593 5.65731 3.82294L2.10778 7.87955C1.76981 8.2658 1.77911 8.84518 2.1293 9.22038L9.22837 16.8265C9.34014 16.9463 9.47831 17.0354 9.62986 17.0883C9.67392 17.1037 9.71938 17.1162 9.766 17.1253C9.82923 17.1378 9.89398 17.1442 9.95942 17.1442C9.97787 17.1442 9.99627 17.1437 10.0146 17.1427C10.2919 17.1278 10.5393 16.9999 10.7113 16.8042L17.7895 9.22038C18.1397 8.84518 18.149 8.2658 17.8111 7.87955L14.2615 3.82294C14.0716 3.60593 13.7973 3.48145 13.509 3.48145H6.40989ZM10.9602 13.6064L15.7108 8.51643L13.0552 5.48145H10.9605L10.9602 13.6064ZM8.96051 5.48145H6.86366L4.20805 8.51643L8.96018 13.608L8.96051 5.48145Z" />
		</symbol>
		<symbol id="logout" width="20" height="20" viewBox="0 0 20 20" xmlns="http://www.w3.org/2000/svg">
			<path fill-rule="evenodd" clip-rule="evenodd"
				d="M3.60095 2.60095C3.9057 2.29621 4.31902 2.125 4.75 2.125H9.125C9.67728 2.125 10.125 2.57272 10.125 3.125C10.125 3.67728 9.67728 4.125 9.125 4.125H5.125V15.875H9.125C9.67728 15.875 10.125 16.3227 10.125 16.875C10.125 17.4273 9.67728 17.875 9.125 17.875H4.75C4.31902 17.875 3.9057 17.7038 3.60095 17.399C3.2962 17.0943 3.125 16.681 3.125 16.25V3.75C3.125 3.31902 3.29621 2.9057 3.60095 2.60095ZM8.125 10C8.125 9.44772 8.57272 9 9.125 9H15.4608L14.0429 7.58211C13.6524 7.19158 13.6524 6.55842 14.0429 6.16789C14.4334 5.77737 15.0666 5.77737 15.4571 6.16789L18.5815 9.2923C18.5839 9.29467 18.5863 9.29705 18.5886 9.29945C18.6813 9.3938 18.7514 9.50195 18.7991 9.61722C18.8477 9.73425 18.8746 9.8625 18.875 9.997C18.875 9.998 18.875 9.999 18.875 10C18.875 10.001 18.875 10.002 18.875 10.003C18.8742 10.2746 18.7651 10.5208 18.5886 10.7005C18.5862 10.703 18.5838 10.7054 18.5814 10.7078L15.4571 13.8321C15.0666 14.2226 14.4334 14.2226 14.0429 13.8321C13.6524 13.4416 13.6524 12.8084 14.0429 12.4179L15.4608 11H9.125C8.57272 11 8.125 10.5523 8.125 10Z" />
		</symbol>
	</defs>
</svg>